<svg width="186" height="120" viewBox="0 0 186 120" fill="none" xmlns="http://www.w3.org/2000/svg">
<path d="M42.8554 58.1899H49.4889C54.5632 58.1899 57.3646 55.3885 57.3646 50.3143V41.4344C57.3646 36.3601 54.5632 33.5587 49.4889 33.5587H42.8554C37.7812 33.5587 34.9798 36.3601 34.9798 41.4344V50.3143C34.9798 55.3885 37.7812 58.1899 42.8554 58.1899ZM44.1768 42.3329H48.2204V49.4157H44.1768V42.3329ZM60.5888 41.4344V50.3143C60.5888 55.3885 63.3902 58.1899 68.4644 58.1899H76.3665V49.4157H69.7594V42.3329H76.3665V33.5587H68.4644C63.3902 33.5587 60.5888 36.3601 60.5888 41.4344ZM92.7785 58.1899H101.949V41.4344C101.949 36.3601 99.1477 33.5587 94.0735 33.5587H89.1842V26.0002H79.9872V58.1899H89.1842V42.3329H92.7785V58.1899ZM25.5977 42.3329H31.7555V33.5587H21.3956C16.6914 33.5587 15 35.9109 15 38.9237C15 40.9587 15.5814 42.5708 16.9293 44.1301L21.5278 49.4157H15.3964V58.1899H25.7563C30.487 58.1899 32.1784 55.8378 32.1784 52.825C32.1784 50.8164 31.597 49.1779 30.2227 47.6186L25.5977 42.3329ZM105.57 58.1899H114.74V33.5587H105.57V58.1899ZM105.57 77.6676H101.949V61.8106H92.7785V78.5661C92.7785 83.6404 95.5799 86.4417 100.654 86.4417H105.57V94.0002H114.74V61.8106H105.57V77.6676ZM68.4909 61.8106H61.8574C56.8096 61.8106 53.9817 64.612 53.9817 69.6862V78.5661C53.9817 83.6404 56.7831 86.4417 61.8574 86.4417H68.4909C73.5651 86.4417 76.3665 83.6139 76.3665 78.5661V69.6862C76.3665 64.612 73.5651 61.8106 68.4909 61.8106ZM67.1959 77.6676H63.1524V70.5848H67.1959V77.6676ZM51.1539 67.1755C51.1539 64.1363 49.4625 61.8106 44.7583 61.8106H34.3984V70.5848H40.5826L35.9841 75.8704C34.6098 77.4297 34.0284 79.0418 34.0284 81.0768C34.0284 84.1161 35.7198 86.4417 40.424 86.4417H50.7839V77.6411H44.6261L49.2246 72.3555C50.5725 70.8226 51.1539 69.1841 51.1539 67.1755ZM79.9872 86.4417H89.1842V61.8106H79.9872V86.4417Z" fill="#94A3B8"/>
<path d="M131.126 41.4342V58.1898H140.297V42.3328H146.243V33.5586H139.028C133.954 33.5586 131.126 36.36 131.126 41.4342ZM144.446 35.3821V40.4828H138.473V56.3398H132.976V41.4342C132.976 39.2142 133.584 37.8135 134.483 36.8886C135.381 35.99 136.808 35.3821 139.028 35.3821H144.446ZM118.335 58.1898H127.506V49.4156H118.335V58.1898ZM120.185 51.2656H125.682V56.3662H120.185V51.2656ZM162.682 33.5586V49.4156H159.087V33.5586H149.89V50.3141C149.89 55.3884 152.692 58.1898 157.766 58.1898H163.977C169.051 58.1898 171.852 55.3884 171.852 50.3141V33.5586H162.682ZM170.029 50.3141C170.029 52.5341 169.447 53.9348 168.522 54.8598C167.624 55.7584 166.197 56.3398 163.977 56.3662H157.766C155.546 56.3662 154.145 55.7584 153.22 54.8598C152.322 53.9348 151.74 52.5341 151.714 50.3141V35.3821H157.211V51.2391H164.505V35.3821H170.002V50.3141H170.029Z" fill="#94A3B8"/>
<path d="M127.162 78.672C127.03 78.672 126.898 78.6984 126.766 78.6984C122.088 78.6984 118.335 74.9192 118.335 70.2678C118.335 65.6164 122.088 61.8372 126.766 61.8372C131.417 61.8372 135.196 65.6164 135.196 70.2678C135.196 74.047 132.738 77.2184 129.303 78.302C129.303 78.1698 129.25 77.1127 129.435 76.7691C131.998 75.712 133.796 73.2013 133.796 70.2678C133.796 66.3828 130.651 63.2114 126.766 63.2114C122.881 63.2114 119.709 66.3564 119.709 70.2678C119.709 74.1527 122.854 77.3241 126.766 77.3241C126.898 77.3241 127.003 77.3241 127.136 77.2977C127.109 77.7206 127.083 78.4077 127.162 78.672Z" fill="#94A3B8"/>
<path d="M145.08 61.8105C140.772 61.8105 137.204 65.0348 136.702 69.2105C136.993 69.184 137.944 69.3955 138.076 69.4483C138.473 65.9334 141.459 63.2112 145.08 63.2112C148.965 63.2112 152.136 66.3562 152.136 70.2676C152.136 73.2276 150.313 75.7383 147.749 76.7954C147.696 77.139 147.591 77.5354 147.643 78.3018C151.053 77.2182 153.537 74.0204 153.537 70.2676C153.537 65.5898 149.758 61.8105 145.08 61.8105ZM145.476 77.2975C145.344 77.324 145.212 77.324 145.08 77.324C141.724 77.324 138.922 74.9718 138.209 71.8004C137.706 71.589 136.993 71.4569 136.729 71.4569C137.31 75.5533 140.825 78.6982 145.08 78.6982C145.212 78.6982 145.344 78.6982 145.476 78.6718C145.397 77.9582 145.45 77.5354 145.476 77.2975Z" fill="#94A3B8"/>
<path d="M156.55 71.8004C157.263 74.9454 160.065 77.2975 163.421 77.2975C167.306 77.2975 170.478 74.1526 170.478 70.2412C170.478 66.3562 167.333 63.1848 163.421 63.1848C159.801 63.1848 156.814 65.9069 156.418 69.4483C156.18 69.3426 155.334 69.2105 155.043 69.2105C155.546 65.0348 159.113 61.8105 163.421 61.8105C168.073 61.8105 171.852 65.5898 171.852 70.2412C171.852 74.8926 168.073 78.6718 163.421 78.6718C159.166 78.6718 155.651 75.5268 155.07 71.4304C155.334 71.4569 156.048 71.589 156.55 71.8004Z" fill="#94A3B8"/>
<path d="M135.936 70.9549C139.292 70.9549 142.093 73.307 142.807 76.452C143.15 76.6106 144.023 76.822 144.287 76.822C143.705 72.7256 140.191 69.5542 135.936 69.5542C135.803 69.5542 135.671 69.5542 135.566 69.5542C135.592 69.8713 135.618 70.6113 135.566 70.9549C135.698 70.9549 135.803 70.9549 135.936 70.9549ZM142.939 78.8041C142.543 82.3191 139.556 85.0412 135.936 85.0412C132.051 85.0412 128.879 81.8962 128.879 77.9848C128.879 75.0249 130.703 72.5142 133.266 71.457C133.372 70.8756 133.398 70.2678 133.372 69.9242C129.963 71.0078 127.479 74.2056 127.479 77.9584C127.479 82.6098 131.258 86.389 135.909 86.389C140.217 86.389 143.785 83.1648 144.287 78.9627C143.996 79.0155 143.283 78.9098 142.939 78.8041Z" fill="#94A3B8"/>
<path d="M161.254 78.8041C160.858 82.3191 157.872 85.0412 154.251 85.0412C150.366 85.0412 147.195 81.8962 147.195 77.9848C147.195 75.0513 149.018 72.5142 151.582 71.457C151.661 71.2192 151.74 70.3206 151.687 69.9242C148.278 71.0078 145.82 74.2056 145.82 77.9584C145.82 82.6098 149.6 86.389 154.251 86.389C158.559 86.389 162.127 83.1648 162.629 78.9627C162.179 79.0155 161.439 78.857 161.254 78.8041ZM153.881 70.9549C154.013 70.9549 154.119 70.9549 154.251 70.9549C157.607 70.9549 160.435 73.307 161.122 76.452C161.413 76.5841 162.153 76.7691 162.602 76.822C162.021 72.7256 158.506 69.5542 154.251 69.5542C154.119 69.5542 154.013 69.5542 153.881 69.5542C153.907 69.9242 153.907 70.6113 153.881 70.9549Z" fill="#94A3B8"/>
</svg>
