<svg width="179" height="120" viewBox="0 0 179 120" fill="none" xmlns="http://www.w3.org/2000/svg">
<path d="M62.687 62.4585H71.6636V65.3915H67.3934V85.9999H62.687V62.4585Z" fill="#94A3B8"/>
<path d="M76.9849 77.1623L77.7914 65.3915H78.0616L78.8682 77.1623H76.9849ZM71.7729 85.9999H76.3809L76.817 79.7479H79.0361L79.4741 85.9999H84.0801L81.6256 62.4585H74.2274L71.7729 85.9999Z" fill="#94A3B8"/>
<path d="M90.8206 77.7604V82.1986C90.8206 82.7968 91.2837 82.9704 91.5538 82.9704C91.9977 82.9704 92.3064 82.6038 92.3064 82.1986V76.7184C92.3064 75.9852 92.1713 75.1747 90.4154 75.1747H88.505V72.589H90.4925C91.824 72.589 92.3064 72.2803 92.3064 70.8331V66.1634C92.3064 65.7582 91.9977 65.3915 91.5538 65.3915C91.2837 65.3915 90.8206 65.5459 90.8206 66.1634V70.0033H86.1123V66.6651C86.1123 65.0249 86.3053 62.4585 89.6049 62.4585H93.5028C96.8024 62.4585 97.0147 65.0249 97.0147 66.6651V70.4278C97.0147 72.9942 95.2201 73.6889 93.8115 73.631V73.8626C96.9761 73.7854 97.0147 76.2167 97.0147 77.0465V81.7934C97.0147 83.4528 96.8024 85.9999 93.5028 85.9999H89.6049C86.3053 85.9999 86.1123 83.4528 86.1123 81.7934V77.7604H90.8206Z" fill="#94A3B8"/>
<path d="M100.103 62.4585H111.005V85.9999H106.297V65.3915H104.811V85.9999H100.103V62.4585Z" fill="#94A3B8"/>
<path d="M118.8 75.4063V65.3915H119.418C119.919 65.3915 120.286 65.816 120.286 66.5686V74.2292C120.286 74.9818 119.919 75.4063 119.418 75.4063H118.8ZM114.092 85.9999H118.8V77.992H121.502C124.782 77.992 124.994 75.4449 124.994 73.7854V66.6651C124.994 65.0249 124.782 62.4585 121.502 62.4585H114.092V85.9999Z" fill="#94A3B8"/>
<path d="M134.276 82.1986C134.276 82.6038 133.967 82.9704 133.524 82.9704C133.253 82.9704 132.79 82.7968 132.79 82.1986V66.1634C132.79 65.5459 133.253 65.3915 133.524 65.3915C133.967 65.3915 134.276 65.7582 134.276 66.1634V82.1986ZM128.082 81.7934C128.082 83.4528 128.294 85.9999 131.575 85.9999H135.492C138.772 85.9999 138.984 83.4528 138.984 81.7934V66.6651C138.984 65.0249 138.772 62.4585 135.492 62.4585H131.575C128.294 62.4585 128.082 65.0249 128.082 66.6651V81.7934Z" fill="#94A3B8"/>
<path d="M154.305 62.4585H160.441V85.9999H155.733V71.2383H155.559L153.128 85.9999H149.365L146.953 71.2383H146.78V85.9999H142.071V62.4585H148.188L151.256 79.0147L154.305 62.4585Z" fill="#94A3B8"/>
<path d="M56.5853 30.2724C55.1439 23.9625 51.5316 18.8297 51.0338 18C50.2465 19.1771 47.3656 23.7117 45.901 28.7287C44.3013 34.3439 44.0659 39.3224 44.6178 44.2043C45.1658 49.1055 47.2363 54.1419 47.2363 54.1419C48.3362 56.7662 49.9841 59.6027 51.0569 60.9921C52.6296 58.9467 56.2438 52.849 57.3707 44.899C57.9978 40.4608 58.0248 36.5823 56.5853 30.2724ZM51.0338 59.4098C50.3256 58.0783 49.2257 55.5505 49.1215 51.6141C49.0945 47.832 50.6131 44.5709 51.0569 43.8956C51.4525 44.5709 52.7608 47.4075 52.9171 51.286C53.0232 55.0681 51.7651 58.059 51.0338 59.4098ZM56.1666 40.9818C56.1126 43.3939 55.825 45.941 55.4584 47.4654C55.5896 44.8411 55.2751 41.1555 54.673 38.2611C54.071 35.3859 52.3671 30.5619 51.0068 28.3428C49.7506 30.4654 48.203 34.6334 47.3926 38.2418C46.5783 41.8502 46.5551 46.2304 46.5551 47.5426C46.339 46.4427 45.7987 42.4869 45.9511 38.5312C46.0785 35.2701 46.8426 31.8933 47.2614 30.3496C48.8591 25.1975 50.6671 21.8978 51.0068 21.3768C51.3464 21.8978 53.6233 25.9693 54.8043 30.2338C55.9794 34.4983 56.2167 38.5891 56.1666 40.9818Z" fill="#94A3B8"/>
<path d="M53.4785 62.4584H42.5202V69.8103C42.5299 69.8103 42.5376 69.791 42.5472 69.791C45.1291 67.2053 49.3163 67.2053 51.9001 69.791C54.4819 72.3574 54.4819 76.5447 51.9001 79.1304C51.8885 79.1497 51.877 79.1497 51.8654 79.169C51.8519 79.169 51.8384 79.1883 51.8268 79.2076C49.2507 81.7547 45.8855 83.0282 42.5202 83.0282C39.1395 83.0282 35.7588 81.7547 33.1808 79.169C28.6346 74.6343 28.0963 67.5912 31.5619 62.4584C32.0288 61.7637 32.5672 61.1076 33.1808 60.4902C35.7588 57.9045 39.1395 56.6309 42.5202 56.6309V38.9556C29.53 38.9556 19 49.472 19 62.4584C19 75.4448 29.53 85.9805 42.5202 85.9805C49.2932 85.9805 55.3947 83.1054 59.6861 78.5322V62.4584H53.4785Z" fill="#94A3B8"/>
</svg>
