<svg width="213" height="120" viewBox="0 0 213 120" fill="none" xmlns="http://www.w3.org/2000/svg">
<path d="M82.9342 51.1607C84.7623 50.8956 86.6079 50.77 88.455 50.7849C91.1765 50.7849 93.0816 51.1996 94.3905 52.2363C94.9583 52.7054 95.4069 53.3022 95.6998 53.978C95.9926 54.6537 96.1212 55.3892 96.0753 56.1242C96.0613 57.1187 95.7434 58.085 95.1643 58.8935C94.5851 59.702 93.7724 60.314 92.8354 60.6472V60.7249C93.4853 61.0639 94.046 61.5517 94.4717 62.1485C94.8973 62.7454 95.1759 63.4343 95.2848 64.1593C95.855 66.2328 96.4252 68.6303 96.7751 69.3431H92.5243C91.9583 67.9617 91.5243 66.5297 91.2284 65.0664C90.7359 62.7725 89.9324 62.1505 88.2606 62.1246H86.9646V69.3431H82.8564L82.9342 51.1607ZM87.0424 59.0661H88.6753C90.7489 59.0661 91.9671 58.0293 91.9671 56.4742C91.9671 54.919 90.8137 53.8823 88.9086 53.8823C88.2796 53.8697 87.6508 53.9131 87.0295 54.0118L87.0424 59.0661Z" fill="#94A3B8"/>
<path d="M117.264 59.9212C117.264 65.9345 113.61 69.5891 108.193 69.5891C102.776 69.5891 99.5615 65.4679 99.5615 60.2452C99.5615 54.7373 103.074 50.6292 108.491 50.6292C114.128 50.6292 117.213 54.854 117.213 59.9212M103.942 60.1674C103.942 63.7573 105.627 66.2973 108.413 66.2973C111.199 66.2973 112.819 63.6276 112.819 60.0508C112.819 56.759 111.238 53.9209 108.374 53.9209C105.51 53.9209 103.929 56.5906 103.929 60.1545" fill="#94A3B8"/>
<path d="M121.464 65.0012C122.891 65.727 124.464 66.1212 126.064 66.1546C127.97 66.1546 128.98 65.3641 128.98 64.1589C128.98 62.9536 128.099 62.3575 125.896 61.5669C122.838 60.5043 120.855 58.8065 120.855 56.1498C120.855 53.0136 123.447 50.616 127.801 50.616C129.413 50.5838 131.012 50.8976 132.492 51.5362L131.559 54.8927C130.349 54.3045 129.017 54.0072 127.671 54.0244C125.87 54.0244 125.002 54.8409 125.002 55.7999C125.002 56.9792 126.039 57.4846 128.41 58.3918C131.65 59.5841 133.179 61.2818 133.179 63.8608C133.179 66.9452 130.808 69.589 125.766 69.589C123.974 69.5969 122.203 69.2027 120.583 68.4356L121.464 65.0012Z" fill="#94A3B8"/>
<path d="M140.592 63.4977L138.687 69.2647H136.237L142.471 50.9138H145.335L151.594 69.2647H149.003L147.046 63.4977H140.592ZM146.618 61.6445L144.817 56.3569C144.402 55.1516 144.13 54.076 143.871 53.0003C143.598 54.0889 143.3 55.2035 142.95 56.3309L141.149 61.6445H146.618Z" fill="#94A3B8"/>
<path d="M157.115 52.9358H151.53V50.927H165.112V52.9358H159.5V69.2779H157.115V52.9358Z" fill="#94A3B8"/>
<path d="M183.475 59.9215C183.475 66.2328 179.587 69.5894 174.948 69.5894C170.308 69.5894 166.706 65.8181 166.706 60.2584C166.706 54.4266 170.321 50.6165 175.22 50.6165C180.119 50.6165 183.475 54.5043 183.475 59.9085M169.22 60.2066C169.22 64.0945 171.345 67.6455 175.077 67.6455C178.81 67.6455 180.961 64.1982 180.961 60.0252C180.961 56.3706 179.043 52.5604 175.103 52.5604C171.164 52.5604 169.22 56.1891 169.22 60.2066Z" fill="#94A3B8"/>
<path d="M203.382 61.2172C203.252 58.6253 203.083 55.5797 203.109 53.2859H203.032C202.397 55.4372 201.645 57.757 200.725 60.2582L197.485 69.1744H195.67L192.703 60.4267C191.822 57.8347 191.096 55.4761 190.577 53.2989C190.577 55.5927 190.383 58.6641 190.214 61.4245L189.735 69.291H187.48L188.776 50.9402H191.796L194.932 59.8175C195.696 62.0725 196.318 64.0942 196.785 65.9993H196.863C197.329 64.159 197.977 62.1114 198.794 59.8175L202.06 50.9402H205.079L206.22 69.291H203.835L203.382 61.2172Z" fill="#94A3B8"/>
<mask id="mask0_156_10957" style="mask-type:luminance" maskUnits="userSpaceOnUse" x="34" y="53" width="14" height="14">
<path d="M36.1304 55.5367C35.1047 56.6744 34.5009 58.1299 34.42 59.6596C34.3391 61.1893 34.7859 62.7004 35.6858 63.9401C36.5857 65.1797 37.8841 66.0727 39.3636 66.4697C40.8431 66.8666 42.414 66.7434 43.8136 66.1206C45.2131 65.4979 46.3563 64.4134 47.052 63.0486C47.7476 61.6838 47.9534 60.1215 47.635 58.6231C47.3165 57.1248 46.4932 55.7812 45.3027 54.8172C44.1122 53.8533 42.6267 53.3274 41.0948 53.3276C40.1593 53.3306 39.2346 53.5286 38.3798 53.909C37.5251 54.2893 36.759 54.8437 36.1304 55.5367Z" fill="white"/>
</mask>
<g mask="url(#mask0_156_10957)">
<path d="M48.5412 53.3276H33.6304V67.5351H48.5412V53.3276Z" fill="#94A3B8"/>
</g>
<mask id="mask1_156_10957" style="mask-type:luminance" maskUnits="userSpaceOnUse" x="21" y="28" width="45" height="18">
<path d="M21.8877 34.3709C31.7701 29.5925 38.5832 32.8886 42.8152 37.0624C43.3965 37.6438 43.8964 38.1786 44.3673 38.7424C45.9854 40.674 47.3185 42.8274 48.3261 45.137C49.9158 45.4365 51.5353 45.5477 53.1511 45.4683H53.4359H53.6975C58.088 45.0739 62.1911 43.1163 65.2599 39.9516L65.6668 39.5272C65.0855 38.8006 64.4286 38.0797 63.7485 37.3938C58.2923 31.9557 51.0626 28.6607 43.3788 28.11C35.6951 27.5593 28.0695 29.7897 21.8935 34.3942" fill="white"/>
</mask>
<g mask="url(#mask1_156_10957)">
<path d="M27.9906 12.8031L15.7979 43.0876L59.5638 60.7081L71.7566 30.4235L27.9906 12.8031Z" fill="#94A3B8"/>
</g>
<mask id="mask2_156_10957" style="mask-type:luminance" maskUnits="userSpaceOnUse" x="8" y="48" width="21" height="42">
<path d="M9.91227 51.3808C7.91964 58.8311 8.67589 66.7498 12.0427 73.6883C15.4094 80.6268 21.1616 86.1212 28.2471 89.1666C19.1785 83.0162 18.6146 75.4533 20.1086 69.6866C20.3063 68.925 20.5388 68.1926 20.7888 67.5008C21.6553 65.1324 22.8573 62.9006 24.3581 60.8738C23.823 59.3483 23.1108 57.8909 22.2362 56.5313L22.0793 56.2872L21.9281 56.0721C19.3919 52.4647 15.6429 49.8898 11.3656 48.8172C11.1795 48.7649 10.9877 48.7184 10.7843 48.6719C10.4587 49.5671 10.1564 50.4682 9.90065 51.4041" fill="white"/>
</mask>
<g mask="url(#mask2_156_10957)">
<path d="M27.8151 45.5104L0.14209 49.4341L6.21367 92.2559L33.8867 88.3322L27.8151 45.5104Z" fill="#94A3B8"/>
</g>
<mask id="mask3_156_10957" style="mask-type:luminance" maskUnits="userSpaceOnUse" x="45" y="56" width="28" height="36">
<path d="M59.7723 73.0755C59.0166 73.2848 58.2609 73.4475 57.5401 73.5812C55.054 74.0129 52.5191 74.0873 50.012 73.8021C48.9601 75.0298 48.0548 76.3759 47.3147 77.8132C47.2682 77.9004 47.2275 77.9818 47.181 78.069L47.0705 78.3074C45.2143 82.3125 44.8594 86.8514 46.0706 91.0964C46.1171 91.2824 46.1753 91.4684 46.2334 91.6777C47.1693 91.5091 48.1053 91.3231 49.0354 91.0964C56.4788 89.0934 62.953 84.4789 67.2747 78.0961C71.5964 71.7133 73.4771 63.9885 72.573 56.3335C71.7766 67.2681 65.5041 71.5292 59.784 73.122" fill="white"/>
</mask>
<g mask="url(#mask3_156_10957)">
<path d="M63.1045 41.7817L27.4629 69.6982L55.9637 106.086L91.6053 78.1694L63.1045 41.7817Z" fill="#94A3B8"/>
</g>
<mask id="mask4_156_10957" style="mask-type:luminance" maskUnits="userSpaceOnUse" x="11" y="31" width="32" height="30">
<path d="M21.888 34.3714C17.1867 37.6531 13.5121 42.2004 11.2905 47.486C14.5986 48.1889 17.662 49.7539 20.1703 52.0223C22.6786 54.2907 24.5427 57.1819 25.5735 60.4029C26.4572 59.8215 29.1719 57.6939 30.9973 51.7819C33.2063 44.6259 37.3918 39.3591 42.8329 37.0571C41.4844 35.3809 39.7714 34.0343 37.8243 33.1197C35.8771 32.205 33.7471 31.7464 31.596 31.7787C28.8638 31.7787 25.6317 32.4763 21.888 34.3656" fill="white"/>
</mask>
<g mask="url(#mask4_156_10957)">
<path d="M22.4805 17.7078L-0.181641 52.3191L35.1426 75.448L57.8047 40.8367L22.4805 17.7078Z" fill="#94A3B8"/>
</g>
<mask id="mask5_156_10957" style="mask-type:luminance" maskUnits="userSpaceOnUse" x="19" y="69" width="31" height="23">
<path d="M28.2475 89.1372C33.4321 91.5656 39.1983 92.4766 44.8791 91.7648C44.2443 89.8531 43.93 87.8496 43.949 85.8353C43.9449 81.0461 45.7395 76.4299 48.9774 72.901L49.0239 72.8312C48.3612 72.1278 46.065 70.4013 40.153 71.7441C32.8632 73.4067 24.8119 73.2149 20.1091 69.6572C20.1091 69.6572 15.0574 80.5221 28.2475 89.1372Z" fill="white"/>
</mask>
<g mask="url(#mask5_156_10957)">
<path d="M48.6699 66.2368L12.6982 69.9033L15.401 96.4194L51.3727 92.7529L48.6699 66.2368Z" fill="#94A3B8"/>
</g>
<mask id="mask6_156_10957" style="mask-type:luminance" maskUnits="userSpaceOnUse" x="47" y="40" width="26" height="34">
<path d="M52.3199 46.9803C50.9017 46.9779 49.4875 46.8298 48.0996 46.5385H48.0298C47.7624 47.5383 47.5357 50.3577 51.5526 54.6769C56.6391 60.1646 60.4932 67.2276 59.7666 73.0873C59.7666 73.0873 71.7011 72.0293 72.5556 56.2988C72.0648 50.5872 69.9667 45.1313 66.5041 40.5625C64.7288 42.581 62.5443 44.1988 60.0958 45.3083C57.6472 46.4178 54.9907 46.9937 52.3025 46.9977" fill="white"/>
</mask>
<g mask="url(#mask6_156_10957)">
<path d="M71.6393 35.7553L41.3545 41.7573L48.5025 77.8243L78.7873 71.8222L71.6393 35.7553Z" fill="#94A3B8"/>
</g>
</svg>
