<svg width="143" height="120" viewBox="0 0 143 120" fill="none" xmlns="http://www.w3.org/2000/svg">
<path d="M125.55 71.3389C125.55 73.5303 125.553 75.7151 125.55 77.9097C125.55 78.2901 125.537 78.6153 126.076 78.599C127.572 78.5567 129.087 78.6445 130.573 78.5015C132.777 78.2901 134.572 77.2887 135.495 75.1299C136.327 73.1954 136.38 71.1601 135.967 69.1118C135.394 66.2507 133.457 64.469 130.592 64.2415C129.149 64.1277 127.692 64.1764 126.242 64.1049C125.663 64.0756 125.533 64.3 125.54 64.8429C125.563 67.0115 125.55 69.1769 125.55 71.3389ZM120.689 59.8555C120.747 59.8263 120.767 59.8067 120.79 59.81C124.86 59.8425 128.96 59.3386 132.979 60.1676C137.062 61.013 139.975 63.7863 140.876 68.1722C141.474 71.0886 141.334 73.9334 140.2 76.7035C139.049 79.4931 137.004 81.3431 134.208 82.1981C132.706 82.6598 131.093 82.8809 129.523 82.9492C126.762 83.0662 123.992 82.9849 121.225 82.9849C121.063 82.9849 120.904 82.9622 120.692 82.9459V59.8555H120.689Z" fill="#94A3B8"/>
<path d="M77.7498 70.6852C79.3299 70.6852 80.8222 70.6885 82.3178 70.682C82.7112 70.682 83.1176 70.6852 83.5045 70.6072C85.452 70.2203 86.4339 69.0401 86.3559 67.2356C86.2778 65.5092 85.1822 64.3648 83.2282 64.2185C81.57 64.0949 79.9021 64.1534 78.2375 64.1209C77.8668 64.1112 77.7433 64.264 77.7465 64.6216C77.7563 65.5287 77.7465 66.4358 77.7465 67.3364V70.682H77.7498M93.1737 82.9847C91.2425 82.9847 89.4933 82.9912 87.7506 82.9684C87.5816 82.9684 87.3768 82.7929 87.2597 82.6368C85.4032 80.2146 83.576 77.7762 81.7033 75.367C81.4952 75.1004 81.0693 74.9053 80.7279 74.8728C79.9606 74.8013 77.766 74.8371 77.766 74.8371C77.766 74.8371 77.7368 75.0224 77.7433 75.5393C77.766 77.7079 77.7498 79.87 77.7498 82.0386V82.9359H72.8892V59.813C73.0842 59.7902 73.2403 59.761 73.4029 59.761C76.7549 59.7675 80.1069 59.748 83.459 59.8C85.1399 59.826 86.733 60.2812 88.2026 61.159C90.1923 62.349 91.145 64.1859 91.301 66.4423C91.3725 67.4437 91.2913 68.4971 91.0734 69.479C90.5955 71.6313 89.1845 73.0294 87.2272 73.8942C86.9769 74.0047 86.7265 74.1218 86.3981 74.2713C88.6415 77.1617 90.8524 80.0033 93.1737 82.9847Z" fill="#94A3B8"/>
<path d="M106.465 64.8169C105.245 68.0389 104.039 71.2284 102.81 74.4926H110.152C108.91 71.2349 107.694 68.0356 106.465 64.8169ZM118.413 82.9817C116.781 82.9817 115.236 82.9979 113.692 82.9654C113.52 82.9622 113.279 82.6858 113.198 82.4842C112.756 81.408 112.346 80.3221 111.956 79.2297C111.81 78.8168 111.605 78.6445 111.146 78.6445C108.051 78.6672 104.956 78.6672 101.861 78.6477C101.383 78.6445 101.159 78.7973 100.996 79.2622C100.603 80.3774 100.144 81.4731 99.6825 82.5622C99.6077 82.7346 99.3899 82.9589 99.2306 82.9621C97.6862 82.9947 96.1419 82.9817 94.4902 82.9817C95.0202 81.6389 95.5014 80.3872 96.0053 79.1452C98.5283 72.88 101.064 66.6213 103.574 60.3497C103.75 59.9042 103.971 59.7384 104.442 59.7514C105.824 59.7807 107.212 59.7644 108.594 59.7579C108.949 59.7579 109.183 59.8165 109.342 60.2164C112.314 67.6552 115.302 75.0876 118.283 82.52C118.319 82.6305 118.345 82.7476 118.413 82.9817Z" fill="#94A3B8"/>
<path d="M30.3202 82.998H25.4434V59.8328C26.9454 59.8328 28.4118 59.8231 29.8781 59.8491C30.0309 59.8524 30.213 60.0799 30.3267 60.2393C33.3699 64.5504 36.4001 68.8681 39.4335 73.1858C39.7977 73.7027 40.1715 74.2099 40.6267 74.8439V59.8589H45.4548V83.0306C43.9755 83.0306 42.5092 83.0436 41.0461 83.0078C40.8771 83.0045 40.682 82.7412 40.5519 82.5624C37.2942 77.9358 34.0462 73.3093 30.7917 68.6795C30.6811 68.5169 30.5446 68.3706 30.3202 68.104V82.998Z" fill="#94A3B8"/>
<path d="M18.8532 59.8586H14.0283V82.9751H18.8532V59.8586Z" fill="#94A3B8"/>
<path d="M67.8724 70.3016C67.8724 70.1423 67.8366 69.8432 67.531 69.8432C67.4042 69.84 67.2839 69.8432 67.1571 69.8367V69.8334H66.5491C65.4632 69.8204 64.3675 69.8237 63.2231 69.8237V69.8334H59.2826V74.3202H63.2166C63.2166 75.4841 63.2198 76.6481 63.2458 77.7177C63.2231 78.9695 62.7744 78.9727 61.9941 79.119C61.4219 79.2263 60.7684 79.2296 59.8255 79.1515C57.8357 78.9825 56.0085 78.342 54.6495 76.7489C53.453 75.3476 53.0987 73.6472 52.9816 71.8427C52.7703 68.3964 54.6398 65.5125 57.8715 64.4884C60.9602 63.5098 63.9156 63.9617 66.7669 65.415C66.9198 65.493 67.0823 65.5548 67.3457 65.6783C67.3457 64.3096 67.3196 63.0416 67.3587 61.7801C67.3749 61.2501 67.2189 60.9835 66.7247 60.795C63.5905 59.6017 60.3945 59.1921 57.0977 59.9301C54.6658 60.4796 52.4939 61.5395 50.826 63.4642C48.0527 66.6667 47.5488 70.4772 48.3161 74.4697C49.1874 79.0247 52.068 81.7948 56.4377 82.988C60.1799 84.0089 64.7512 83.583 67.4107 82.1525C67.6155 82.0744 67.8659 81.7688 67.8659 81.5705C67.8919 78.0526 67.8919 73.8162 67.8724 70.3016Z" fill="#94A3B8"/>
<path d="M7.82811 89.1686V51.6622L40.63 34.0696V53.6584H45.4581V26L3 48.7718V94H45.4581V89.1686H7.82811Z" fill="#94A3B8"/>
</svg>
