<svg width="221" height="120" viewBox="0 0 221 120" fill="none" xmlns="http://www.w3.org/2000/svg">
<path d="M164.983 66.8432C164.09 67.8312 162.999 68.621 161.782 69.1615C160.565 69.7021 159.248 69.9816 157.916 69.9819C155.407 69.9377 153.016 68.9101 151.258 67.1203C149.499 65.3306 148.514 62.9219 148.514 60.4129C148.514 57.9039 149.499 55.4952 151.258 53.7055C153.016 51.9158 155.407 50.8882 157.916 50.844C159.978 50.844 161.886 51.5068 163.453 52.6184L168.669 45.283C165.531 43.0425 161.771 41.8381 157.916 41.8382C152.989 41.8382 148.264 43.7954 144.78 47.2791C141.297 50.7628 139.339 55.4877 139.339 60.4144C139.339 65.3411 141.297 70.066 144.78 73.5497C148.264 77.0334 152.989 78.9906 157.916 78.9906C162.472 78.987 166.868 77.3046 170.262 74.2648L164.983 66.8432ZM122.746 42.9409L117.55 50.2584C120.161 50.519 122.571 51.774 124.281 53.7635C125.991 55.7529 126.87 58.3242 126.735 60.9441C126.601 63.564 125.463 66.0317 123.558 67.8356C121.653 69.6394 119.127 70.641 116.504 70.6328V33.7717H107.852V41.8382C105.413 41.8382 102.997 42.3187 100.743 43.2523C98.4895 44.1858 96.4417 45.5541 94.7167 47.2791C92.9918 49.004 91.6234 51.0519 90.6899 53.3056C89.7564 55.5594 89.2759 57.9749 89.2759 60.4144C89.2759 62.8539 89.7564 65.2694 90.6899 67.5232C91.6234 69.777 92.9918 71.8248 94.7167 73.5497C96.4417 75.2747 98.4895 76.643 100.743 77.5765C102.997 78.5101 105.413 78.9906 107.852 78.9906V87.3513H116.504V78.9876C120.882 78.995 125.122 77.4541 128.474 74.6375C131.826 71.8208 134.075 67.9097 134.822 63.5956C135.569 59.2815 134.766 54.8422 132.556 51.0625C130.347 47.2828 126.872 44.4061 122.746 42.9409ZM97.6307 60.4144C97.6307 59.073 97.8949 57.7448 98.4084 56.5056C98.9218 55.2664 99.6743 54.1404 100.623 53.1921C101.572 52.2437 102.698 51.4915 103.937 50.9785C105.176 50.4654 106.505 50.2016 107.846 50.202V70.6268C106.505 70.6272 105.177 70.3633 103.938 69.8503C102.698 69.3372 101.572 68.5849 100.624 67.6366C99.6756 66.6882 98.9233 65.5622 98.4102 64.323C97.8972 63.0838 97.6333 61.7556 97.6337 60.4144H97.6307ZM185.052 78.2445H175.597V42.5783H185.049L185.052 78.2445ZM186.249 60.4114L199.039 42.5783H208.877L195.983 60.1558L209.554 78.2445H199.58L186.249 60.4114Z" fill="#94A3B8"/>
<path d="M38.2613 47.0683H75.4938C73.6474 42.9264 70.9658 39.2102 67.617 36.1524C64.2682 33.0946 60.3242 30.761 56.032 29.2976L38.2583 47.0683H38.2613Z" fill="#94A3B8"/>
<path d="M77.3394 52.2969H31.9541C31.4358 52.2978 30.9289 52.1446 30.4978 51.8569C30.0667 51.5692 29.7308 51.1599 29.5327 50.6809C29.3346 50.202 29.2833 49.675 29.3853 49.1668C29.4872 48.6586 29.7379 48.1922 30.1054 47.8267L50.0696 27.8655C48.5453 27.6507 47.008 27.5414 45.4687 27.5386C27.3086 27.5386 12.5903 42.2568 12.5903 60.4169C12.5903 62.8452 12.8638 65.211 13.3631 67.4966H59.2329C59.7512 67.4958 60.258 67.6489 60.6892 67.9366C61.1203 68.2243 61.4562 68.6336 61.6543 69.1126C61.8524 69.5915 61.9037 70.1186 61.8017 70.6267C61.6997 71.1349 61.4491 71.6013 61.0816 71.9668L40.1811 92.8672C41.905 93.1466 43.6645 93.2982 45.4627 93.2982C63.6228 93.2982 78.341 78.5799 78.341 60.4228C78.3529 57.6141 77.9992 54.8946 77.3394 52.2969Z" fill="#94A3B8"/>
<path d="M52.9467 72.7368H15.0156C16.7523 77.0187 19.3696 80.8878 22.6977 84.0931C26.0259 87.2984 29.9907 89.7683 34.3348 91.3427L52.9467 72.7368Z" fill="#94A3B8"/>
</svg>
