<svg width="254" height="120" viewBox="0 0 254 120" fill="none" xmlns="http://www.w3.org/2000/svg">
<path d="M91.949 74.4019V76.1992H94.9541C94.7969 77.8245 94.0525 79.2341 92.4078 79.2341C91.2195 79.2341 90.3604 78.5 90.1023 77.2212H87.9414C88.3715 79.4922 89.8454 81.075 92.4491 81.075C95.2121 81.075 97.2159 79.1905 97.2159 75.5959C97.2159 71.9427 95.0974 70.0869 92.4215 70.0869C89.3155 70.0869 88.0561 72.2444 87.9414 73.7836H90.1023C90.2744 73.1505 90.6322 71.9278 92.4215 71.9278C93.3081 71.9278 94.4976 72.4898 94.8692 74.4019H91.949ZM99.9263 70.361V76.3862C99.9263 78.6446 99.6831 79.3339 98.7104 79.3339C98.4237 79.3339 98.1943 79.2915 98.0658 79.2479V80.9167C98.4375 81.0314 98.8963 81.075 99.3826 81.075C101.429 81.075 102.087 79.3201 102.087 76.6167V72.1584H105.021V80.8009H107.182V70.361H99.9263ZM109.181 70.361V80.8009H117.082V79.0036H111.343V76.1132H116.395V74.3158H111.343V72.1584H116.852V70.361H109.181ZM120.889 70.361H118.728V80.8009H120.889V77.2636L121.905 76.2141L125.111 80.802H127.901L123.422 74.6313L127.658 70.361H124.853L120.889 74.6026V70.361ZM133.466 72.1584H136.6V70.361H128.171V72.1584H131.305V80.8009H133.466V72.1584ZM139.966 77.0331H142.456C145.247 77.0331 145.763 74.6324 145.763 73.6976C145.763 71.6411 144.56 70.3599 142.557 70.3599H137.805V80.8009H139.966V77.0331ZM139.966 72.1584H141.698C143.044 72.1584 143.601 72.5896 143.601 73.6105C143.601 74.2585 143.415 75.2357 141.984 75.2357H139.966V72.1584ZM147.049 75.581C147.049 80.4706 150.656 81.075 152.03 81.075C153.404 81.075 157.011 80.4706 157.011 75.581C157.011 70.6914 153.404 70.0869 152.03 70.0869C150.656 70.0869 147.049 70.6914 147.049 75.581ZM149.211 75.581C149.211 72.6619 150.856 71.9278 152.03 71.9278C153.204 71.9278 154.85 72.6619 154.85 75.581C154.85 78.5 153.204 79.2341 152.03 79.2341C150.856 79.2341 149.211 78.5 149.211 75.581ZM158.659 70.361V80.8009H160.82V72.1584H166.058V70.361H158.659ZM167.435 70.361V80.8009H175.336V79.0036H169.596V76.1132H174.649V74.3158H169.596V72.1584H175.107V70.361H167.435ZM179.143 70.361H176.982V80.8009H179.143V76.1132H183.193V80.802H185.354V70.361H183.193V74.3158H179.143V70.361ZM187.352 70.361V80.8009H195.252V79.0036H189.513V76.1132H194.565V74.3158H189.513V72.1584H195.023V70.361H187.352ZM199.059 77.0331H201.549C204.34 77.0331 204.855 74.6324 204.855 73.6976C204.855 71.6411 203.653 70.3599 201.649 70.3599H196.898V80.8009H199.059V77.0331ZM199.059 72.1584H200.791C202.136 72.1584 202.694 72.5896 202.694 73.6105C202.694 74.2585 202.508 75.2357 201.077 75.2357H199.059V72.1584ZM208.75 70.361L205.058 80.8009H207.333L208.063 78.6446H211.885L212.557 80.8009H214.905L211.255 70.361H208.75ZM209.967 72.7192H209.996L211.412 76.8472H208.635L209.967 72.7192ZM218.374 70.361H216.213V80.8009H223.598V83.0157H225.616V79.0036H224.585V70.361H222.424V79.0036H218.374V70.361ZM229.08 70.361H226.919V80.8009H229.237L233.474 73.3661H233.503V80.8009H235.664V70.361H233.231L229.095 77.6375H229.08V70.361ZM245.896 70.361H240.644C238.64 70.361 237.381 71.8854 237.381 73.5382C237.381 75.1933 238.554 76.1281 239.728 76.5158L237.195 80.8009H239.728L242.132 76.7176H243.735V80.8009H245.896V70.361ZM243.735 74.9192H241.23C240.1 74.9192 239.542 74.3296 239.542 73.4671C239.542 72.9062 239.957 72.1584 241.059 72.1584H243.735V74.9192Z" fill="#94A3B8"/>
<path fill-rule="evenodd" clip-rule="evenodd" d="M44.3766 75.6441C35.0058 75.6441 27.4139 68.0567 27.4139 58.7054C27.4139 49.3552 35.0058 41.7678 44.3766 41.7678C53.7475 41.7678 61.3486 49.354 61.3486 58.7054C61.3394 68.0567 53.7475 75.6441 44.3766 75.6441ZM77.1001 61.6313C75.812 60.6495 74.2315 59.9705 72.8024 59.225C72.1394 58.8751 70.6254 57.7431 70.1712 57.337C68.7512 56.0822 67.899 54.7517 66.1854 53.7802C66.1854 53.7802 66.5547 53.5164 66.9332 53.3558C68.1926 52.8168 69.6126 52.8076 70.8422 52.2421C69.2811 49.9114 66.5352 50.2234 64.7563 48.5614C65.8069 48.7599 67.1993 48.6371 68.258 48.5339C70.2182 48.3447 70.521 47.6565 71.4489 46.2778C71.7127 45.8821 72.0821 45.4864 72.4044 45.2684C73.8622 44.2969 77.63 44.7684 79.2759 44.7684C77.8193 43.985 75.5368 42.5317 73.8622 42.3815C67.3691 41.5889 64.879 43.8439 60.5916 41.6933C60.1179 41.5132 62.6733 39.9751 64.2264 39.9189C63.9052 39.7113 61.9828 39.0403 61.2729 39.0598C59.5788 39.0977 58.7449 39.6826 57.4488 40.6163C57.4488 39.381 57.5337 38.484 58.7449 37.7098C59.4927 37.2281 60.9701 36.8897 61.5183 36.494C62.0769 36.0972 62.6458 35.0029 62.8442 34.379C63.0427 33.7665 63.014 32.1905 63.014 32.1905C62.1721 33.2377 61.5195 34.0303 60.1465 34.3044C60.1465 34.3044 54.6089 35.3516 53.2841 35.8138C51.9582 36.2761 50.5107 37.711 50.5107 37.711C50.5107 37.711 50.3111 37.4655 50.2928 36.8427C50.2836 36.2291 53.2084 30.8979 52.8196 31.1525C52.4319 31.398 50.6426 31.9256 49.5828 32.2938C48.523 32.6619 46.6763 33.0485 44.5097 34.0211C42.3316 34.9926 41.0917 37.1157 40.8841 36.8232C40.6845 36.5307 40.1833 35.9274 40.0984 34.9926C40.0032 34.0498 40.8932 32.4922 41.2534 31.6526C42.0104 29.8312 42.3419 27.6416 40.9781 26.0002C40.4861 26.3868 35.6962 31.398 34.7121 33.0863C33.7372 34.7758 32.3367 38.5035 32.3367 38.5035L30.6988 43.4757C30.6988 43.4757 30.2056 43.0421 29.9131 42.5983C29.6195 42.136 29.7709 40.3811 29.7709 40.3811C30.1689 37.7477 30.216 34.5315 27.8027 32.6998C27.0916 32.1618 26.1453 32.2284 26.1453 32.2284C26.1453 32.2284 26.7796 33.115 26.7326 34.2471C26.6752 35.3711 26.3632 36.541 26.3632 36.541L25.1325 41.5132C24.0819 45.5518 24.4982 47.8732 24.3663 47.8538C22.483 47.6565 21.0435 45.9956 20.665 44.2683C20.4849 43.4195 20.4849 40.5222 20.4849 40.5222C18.3837 43.6179 17.2195 45.608 17.8641 49.3643C18.3091 51.9588 19.7681 54.676 21.0825 56.9505C21.7638 58.1204 22.257 60.216 22.257 60.216C21.461 59.4234 20.7235 58.7432 19.4836 58.7432C17.6748 58.7432 15.1285 60.3192 13.5675 59.3855C13.3767 59.2868 13.1807 59.1988 12.9802 59.1217C12.9802 59.1217 13.2165 59.6493 13.3495 59.8673C15.0345 62.5742 17.1644 62.0924 19.7199 63.3105C21.102 63.962 21.8877 64.4426 22.8523 65.6974C22.1526 65.3487 20.2877 65.6125 19.5868 65.858C18.4227 66.264 17.4477 67.1609 16.1895 67.5762C14.1731 68.246 11.324 67.981 9.39244 67.0658C8.92906 66.849 8 66.2938 8 66.2938C8 66.2938 8.16058 66.7652 8.36933 67.1713C8.58726 67.567 10.0726 69.643 10.5463 70.1156C12.2599 71.8234 14.0676 72.5311 16.3776 72.8041C20.3152 72.983 23.7412 72.2192 27.5091 72.9177C28.7868 73.1539 30.2733 74.0027 30.2733 74.0027C26.2405 75.2013 27.7648 77.4563 22.7858 78.3808C26.1832 79.9097 28.8247 79.3718 32.081 78.3808C34.3336 77.6926 36.8042 77.6639 36.8042 77.6639C35.3269 78.3429 33.4252 79.608 32.5535 80.9764C30.4522 84.2877 28.0298 86.1091 24.1106 86.5714C25.5787 88.8734 30.1781 87.864 32.1853 87.2882C34.5516 86.6184 36.7847 85.4577 38.527 83.7028C39.1176 83.1088 39.7015 82.5081 40.2785 81.9009C40.7446 81.4045 41.2617 80.9585 41.8211 80.5704C42.4073 80.1735 43.4682 79.7216 44.0268 79.5885C44.5854 79.4566 45.9101 79.6459 45.9101 79.6459L45.8069 79.7216C45.7014 79.8065 45.3516 80.4098 45.0866 80.8066C44.2149 82.1176 43.8559 83.8828 43.7618 85.421C43.7045 86.241 43.4682 87.6186 43.4682 87.6186C45.5695 85.6458 46.9424 81.9674 49.5736 80.6449C49.9991 80.4293 50.5107 80.4568 50.5107 80.4568C50.3777 83.0605 48.7019 85.2787 48.7019 87.8835C48.7019 93.1952 53.7762 94.1679 53.7486 93.9786C53.5491 92.5449 53.6156 89.9217 53.9654 88.5155C54.5905 86.0243 55.9245 83.5422 56.701 81.0142C57.0795 79.7778 57.0221 78.1456 56.8616 76.8805C57.5807 76.7864 59.4079 80.1643 59.3046 80.599C59.3046 79.6837 59.8816 78.0607 59.9664 76.9654C60.0616 75.8241 59.8151 74.3801 59.4927 73.2859C60.8657 73.7859 61.8406 74.4844 62.7307 75.6165C63.1275 76.1166 63.7435 76.9929 64.0841 77.5503C64.8698 78.8063 65.5133 80.6174 66.791 81.4191C67.4069 81.8068 68.5046 81.637 69.2054 81.5522C68.5803 80.9764 68.0309 80.5887 67.6719 79.8065C66.9722 78.2775 66.8289 75.7301 66.8289 73.9935C66.8289 71.2006 66.2141 68.3974 64.7849 65.9818C65.5133 66.0667 66.1762 66.256 66.7727 66.6987C67.0846 66.935 67.8612 67.5475 68.2867 67.3124C67.501 66.5955 67.7568 65.1985 67.3588 64.2361C67.1677 63.7938 66.9724 63.3533 66.7727 62.9148C67.3404 63.018 67.946 63.4722 68.4668 63.7085C69.6688 64.2556 71.3159 64.4162 72.6131 64.4816C74.7522 64.5951 76.9292 64.5756 78.8791 65.5391C79.0878 65.6423 80.0146 66.4166 80.0146 66.4166C80.0146 65.8499 80.0249 65.265 79.8253 64.7179C79.3436 63.3403 78.207 62.4904 77.099 61.6325L77.1001 61.6313Z" fill="#94A3B8"/>
<path fill-rule="evenodd" clip-rule="evenodd" d="M40.212 43.8361C40.6857 43.6366 40.6857 43.6366 40.7235 43.6366C40.5721 43.6939 40.3829 43.7971 40.212 43.835V43.8361ZM50.5865 44.3637C48.6744 43.5895 46.8289 43.2213 44.7747 43.1089C44.7747 42.9954 44.7839 42.8818 44.793 42.7694C47.0652 42.8153 49.2238 43.3441 51.1737 44.2502C50.9741 44.2789 50.7757 44.3259 50.5865 44.3637ZM44.7655 44.3637V43.7123C44.8058 43.7208 44.8471 43.7242 44.8882 43.7226C44.9171 43.7684 44.9366 43.8195 44.9456 43.8728C45.4652 43.9669 45.0488 44.2697 44.7655 44.3637ZM44.7655 44.5427V44.3729C44.8504 44.4016 44.8504 44.4016 44.9066 44.4303C44.9066 44.5518 44.8791 44.5335 44.7655 44.5427ZM38.8585 44.5518C38.839 44.5335 38.839 44.5335 38.7828 44.5151C38.8115 44.5048 38.8402 44.4865 38.8769 44.4773C38.8677 44.5048 38.8585 44.5232 38.8585 44.5518ZM50.0371 44.5713C50.0657 44.4865 50.0852 44.4956 50.1609 44.514C50.117 44.5268 50.0753 44.5462 50.0371 44.5713ZM43.8846 44.6092C43.8089 44.5897 43.7332 44.5622 43.6575 44.5427C43.7607 44.5335 43.8559 44.5151 43.9603 44.5048C43.9316 44.5518 43.9316 44.6 43.8846 44.608V44.6092ZM38.2529 44.7698C38.2908 44.7411 38.2908 44.7411 38.3103 44.7503C38.2908 44.7503 38.2713 44.7595 38.2529 44.7698ZM43.8181 45.1093C43.7424 45.0714 43.6954 44.9774 43.6288 44.9109C43.7894 44.8168 43.942 44.8076 44.122 44.8076C44.0074 44.9017 43.8754 44.9682 43.8181 45.1093ZM50.2642 45.2033C50.255 45.0714 50.255 44.9487 50.2458 44.826C50.2642 44.8168 50.2642 44.8168 50.3685 44.9395C50.3494 44.9487 50.3303 44.9579 50.3112 44.9671C50.302 45.1001 50.302 45.1001 50.3215 45.1942C50.3123 45.1942 50.2928 45.1942 50.2642 45.2033ZM50.1128 45.6277C49.9992 45.5532 50.1036 45.505 50.1885 45.4304C50.2171 45.4488 50.2171 45.4488 50.2366 45.5428C50.1701 45.5428 50.1506 45.5715 50.1128 45.6277ZM44.2253 45.6472C44.2253 45.544 44.1117 45.4488 44.0452 45.3731C44.1783 45.3731 44.1783 45.3731 44.3102 45.3823C44.3583 45.4488 44.3297 45.5245 44.3102 45.6002C44.2918 45.6277 44.254 45.6392 44.2253 45.6472ZM45.1819 45.7126L45.1532 45.6002C45.1819 45.6094 45.2197 45.6094 45.2564 45.6185C45.2676 45.6431 45.2771 45.6684 45.2851 45.6942C45.2484 45.7034 45.2105 45.7034 45.1819 45.7126ZM43.8181 45.7321C43.7829 45.6505 43.7418 45.5716 43.6954 45.4958C43.5256 45.4958 43.3926 45.6094 43.2412 45.6094C43.1265 45.4488 42.6826 45.4958 42.4933 45.4866C42.4933 45.1747 41.679 45.3077 41.4989 45.3077V45.185L42.1056 45.1563C42.1332 45.1276 42.1332 45.1276 42.1332 45.0623C42.1056 45.0428 42.1056 45.0428 41.4714 44.8547C41.4714 44.8352 41.4714 44.8076 41.4805 44.7881C41.8785 44.7308 42.1343 44.7124 42.5128 44.8168C42.5128 44.8352 42.522 44.8547 42.522 44.8741C42.5442 44.8919 42.5701 44.9044 42.5977 44.9109C42.5977 44.9866 42.522 45.0244 42.522 45.1093C42.8627 45.3077 43.1941 45.4488 43.5818 45.3077C43.8846 45.3261 43.8846 45.3261 43.9316 45.3456L43.9603 45.6667C43.8938 45.7034 43.8571 45.7126 43.8181 45.7321ZM46.4791 45.9581C46.4218 45.817 46.2038 45.8353 46.0719 45.8261C46.0616 45.7413 46.0616 45.6656 46.0054 45.6002C45.9205 45.6002 45.8723 45.6656 45.8058 45.7126C45.7783 45.4866 45.7875 45.4775 45.6166 45.3547V45.3169C45.6562 45.2971 45.6977 45.2813 45.7404 45.2699C46.0524 45.458 46.3461 45.3823 46.6775 45.4671C46.6959 45.505 46.7154 45.552 46.7349 45.6002C46.6397 45.5807 46.4688 45.497 46.3839 45.5623C46.3839 45.5899 46.3747 45.6197 46.3747 45.6472L46.6018 45.7608C46.5732 45.7791 46.5537 45.7883 46.5353 45.8066V45.8732C46.5537 45.8927 46.5823 45.911 46.6018 45.9305C46.5537 45.9489 46.5548 45.9489 46.4791 45.9581ZM44.5006 46.0613C44.4811 46.0429 44.4627 46.0246 44.4432 46.0154C44.4719 46.0154 44.4902 46.0051 44.5189 46.0051V46.0533C44.5097 46.0533 44.5006 46.0521 44.5006 46.0613ZM43.8846 46.0716C43.8559 46.0429 43.8559 46.0429 43.8559 46.0051H44.1312V46.0246C43.9706 46.0533 43.9706 46.0533 43.8846 46.0716ZM45.6166 46.27C45.6074 46.2505 45.5982 46.2414 45.589 46.223C45.6074 46.2035 45.6269 46.1748 45.6544 46.1852V46.27H45.6166ZM45.9951 46.4019C45.9767 46.3824 45.9584 46.3549 45.9389 46.3354L46.0524 46.3641C46.0524 46.3733 46.0616 46.3824 46.0616 46.3928C46.0329 46.3928 46.0146 46.4019 45.9951 46.4019ZM43.9879 46.4019C43.9695 46.3262 43.9133 46.3262 43.8376 46.2792C43.9695 46.2792 44.3583 46.2322 44.0452 46.3171C44.0306 46.3482 44.0113 46.3768 43.9879 46.4019ZM45.0867 46.6279L45.058 46.6004C45.0683 46.6004 45.0867 46.6095 45.1062 46.6095C45.0997 46.6157 45.0932 46.6218 45.0867 46.6279ZM39.8518 47.5053C39.7853 47.5043 39.719 47.4982 39.6534 47.487C39.7107 47.4113 39.7486 47.3081 39.8518 47.3459L39.8805 47.4962C39.8713 47.5053 39.8621 47.5053 39.8518 47.5053ZM40.0227 47.5157C40.0018 47.5101 39.9823 47.5004 39.9654 47.487C40.003 47.4659 40.047 47.459 40.0892 47.4675C40.0892 47.4778 40.0984 47.4962 40.1076 47.5157H40.0227ZM45.2186 47.8827C45.191 47.8552 45.191 47.8552 45.1062 47.8368C45.1062 47.6189 46.6959 46.5063 46.9046 46.3457C46.6867 46.3354 46.6489 46.3262 46.5158 46.1657C46.6764 46.137 47.1122 46.0808 47.2166 46.1278C47.5768 45.8927 47.5768 45.8927 47.6238 45.8353C47.415 45.7126 47.2074 45.5807 46.9987 45.4683C47.1501 45.2595 46.6294 45.2595 46.4975 45.1655C46.3174 44.8638 46.3082 44.9774 45.9859 45.1563C45.7106 44.9579 45.5133 44.92 45.1715 44.9017C45.1624 44.9109 45.1532 44.9109 45.144 44.92C44.9834 44.779 44.9261 44.8627 44.7655 45.0049C44.7655 45.1563 44.8412 45.185 44.9444 45.279C44.9444 45.3444 44.8871 45.3823 44.8504 45.4293C44.8244 45.4019 44.796 45.3769 44.7655 45.3547C44.7552 46.1565 44.746 46.9582 44.746 47.7703H44.6038C44.6038 47.487 44.5946 47.1945 44.5946 46.9112C44.5721 46.9356 44.5423 46.952 44.5097 46.9582C44.4432 46.8825 44.3767 46.8171 44.3102 46.7414C44.3205 46.7128 44.3205 46.7128 44.3675 46.6841C44.3767 46.7036 44.3962 46.7323 44.4145 46.7598C44.4719 46.7701 44.5384 46.7793 44.6038 46.7885C44.6233 46.5522 44.6233 46.5522 44.6233 45.0336C44.5659 44.9957 44.5201 44.9487 44.4719 44.9304C44.434 44.9579 44.3962 45.0049 44.3388 45.0049C44.2815 44.9292 44.2253 44.8547 44.1783 44.7789L44.4719 44.7503C44.5006 44.7216 44.5006 44.7216 44.5006 44.6562C44.4719 44.6379 44.4719 44.6379 44.2253 44.5713L44.6325 44.5427C44.6325 44.2594 44.6416 43.9772 44.6416 43.7031C43.3352 43.6274 43.3352 43.6274 43.2412 43.6182C42.9659 43.4106 42.9659 43.4106 42.9005 43.3911C42.6161 43.4668 42.0288 43.5517 42.5794 43.7214C42.4738 43.7696 42.3798 43.8258 42.2846 43.882C42.2846 44.0426 42.5025 44.0334 42.6252 44.0713V44.0988C42.4555 44.1745 42.7399 44.288 42.7778 44.2972C42.7778 44.3351 42.7778 44.3637 42.787 44.3924C42.5025 44.4016 42.2192 44.4199 41.9439 44.4291V44.3442C41.9061 44.2984 41.8212 44.3064 41.7638 44.2984V44.2318C41.6985 44.1653 41.6033 44.2318 41.5276 44.2594C41.3291 44.0621 41.0355 44.3821 40.9885 44.5897C40.8371 44.5713 40.6857 44.5622 40.5343 44.5518C40.4964 44.514 40.5148 44.467 40.4861 44.4291C40.2785 44.4291 40.0503 44.5048 39.8438 44.5438C39.8787 44.5271 39.9105 44.5046 39.9378 44.4773V44.4016C39.9183 44.3924 39.9 44.3729 39.8805 44.3637C39.3127 44.5622 39.3127 44.5622 39.2841 44.5518C39.7199 44.0621 40.4586 44.0334 40.9598 43.6652V43.5987C40.9399 43.5804 40.9175 43.5649 40.8933 43.5528C42.9292 42.7408 45.2954 43.3922 47.321 43.7214C48.2581 44.1183 49.186 44.5048 50.1231 44.9017C50.1231 45.2504 50.1128 45.2974 49.8765 45.5337C49.8765 45.6942 50.1128 45.7034 50.1323 45.8927C50.1609 45.9018 50.1988 45.911 50.2355 45.9294C50.255 46.0716 50.2837 46.223 50.3123 46.3733C49.9992 46.4673 49.0816 46.855 48.7983 46.7976C48.4657 46.1473 48.4852 46.223 47.766 46.1186C47.766 46.0613 47.7557 46.0051 47.7557 45.9397C46.8765 46.5419 46.0288 47.1904 45.2186 47.8827ZM36.88 44.6367C38.7828 44.4761 40.7511 45.5428 42.2754 46.5522C42.2467 46.5522 42.2467 46.5522 41.7168 46.3824C41.6136 46.2505 41.6136 46.2505 41.5941 46.2414C41.4714 46.3641 41.2248 46.3354 41.0734 46.2792C41.0642 46.2414 41.0447 46.2127 41.0734 46.176C41.055 46.1565 40.8268 46.176 40.7797 46.1565C40.7797 46.0533 40.7992 45.9959 40.8371 45.8823C40.3439 45.458 39.3414 45.6759 38.8115 45.9202C38.8115 46.0154 39.1613 45.9305 39.1613 46.1565C39.2565 46.2035 39.3598 46.2414 39.4641 46.2884C39.4644 46.3677 39.4447 46.4458 39.4068 46.5155C39.4355 46.5338 39.4641 46.5533 39.4928 46.5809C39.4928 46.6004 39.4928 46.6279 39.502 46.6566C39.4446 46.7139 39.3598 46.7139 39.3219 46.7793C39.3598 46.855 39.4079 46.9307 39.4458 47.0052C39.4917 47.0052 39.549 47.0156 39.6064 47.0247C39.6912 47.1566 39.5307 47.1853 39.4263 47.2232C39.3998 47.2941 39.3776 47.3664 39.3598 47.44C37.192 47.3459 34.9393 47.2507 32.8472 47.9217C32.6683 47.9962 32.5444 48.0536 32.4595 48.0914C33.726 46.6971 35.2209 45.5288 36.88 44.6367ZM37.9696 48.431C37.9306 48.4115 37.9019 48.4023 37.8641 48.3736C37.8744 48.2509 37.8744 48.119 37.8836 47.9962C37.9868 47.9205 38.082 47.8173 38.2048 47.7795C38.2048 47.9779 38.2334 47.8643 38.2908 47.9687C38.2151 48.0433 38.1761 48.0433 38.1956 48.166C38.2529 48.1855 38.2529 48.1855 38.3195 48.1763C38.2713 48.2887 38.074 48.3828 37.9696 48.431ZM41.055 49.789C41.0734 49.7706 41.0734 49.7706 41.1399 49.7798C41.1112 49.7798 41.0825 49.789 41.055 49.789ZM41.8785 49.8372C41.8499 49.8372 41.8212 49.8268 41.8017 49.8268V49.789L41.9164 49.8177C41.8969 49.8268 41.8785 49.8268 41.8785 49.8372ZM36.0748 49.8372C36.0561 49.8275 36.0374 49.818 36.0186 49.8085C36.0473 49.7993 36.0759 49.789 36.0943 49.789C36.0851 49.8085 36.0851 49.8177 36.0759 49.8372H36.0748ZM35.413 50.195C35.4038 50.148 35.4038 50.1101 35.4038 50.0723C35.5931 49.9966 35.7066 49.8934 35.8855 49.8544C35.858 49.9312 35.8488 50.0069 35.8293 50.0815C35.5931 50.0918 35.6114 50.0906 35.413 50.195ZM38.1199 50.9027C38.0625 50.8649 38.0063 50.827 37.9593 50.7892H38.433V50.8087C38.3286 50.8465 38.2151 50.874 38.1199 50.9027ZM34.5138 51.0816C34.4289 50.6297 34.4289 50.6297 34.4289 50.5632C34.5229 50.6389 34.5608 50.6767 34.6743 50.6664C34.6938 50.554 34.7225 50.4496 34.75 50.3453L35.1859 50.4313C34.9771 50.6377 34.8257 50.7421 34.75 51.0254L34.5138 51.0816ZM32.1567 51.2044C32.2898 51.0541 32.4217 51.0071 32.6109 50.9222C32.6201 50.9601 32.6201 50.9601 32.6017 51.0449C32.4503 51.0908 32.2989 51.147 32.1567 51.2044ZM36.6999 51.2422L36.6724 51.1849C36.5877 51.1833 36.5036 51.1997 36.4258 51.233C36.3684 51.1864 36.3047 51.1481 36.2365 51.1195C36.2365 51.0449 36.2652 50.9968 36.3031 50.9314C36.4453 50.9119 36.7848 50.9497 36.7848 50.7708C36.7573 50.7524 36.7286 50.7329 36.7102 50.7238C36.7102 50.7146 36.7286 50.7043 36.7378 50.6951C36.7573 50.6951 36.7756 50.7043 36.7951 50.7146C36.8238 50.7995 36.8238 50.7995 36.8616 50.8557C36.88 50.8557 36.8995 50.8649 36.919 50.8649C36.9373 50.8465 36.9557 50.8373 36.9649 50.827C36.9465 50.7524 36.927 50.6859 36.919 50.6205C36.927 50.6205 36.9465 50.6297 36.9649 50.6297C36.9649 50.6389 36.9752 50.6572 36.9844 50.6664C37.2023 50.6767 37.2677 50.6572 37.4202 50.8087C37.1163 51.139 37.1358 51.1952 36.6999 51.2422ZM34.8544 51.6391C34.8831 51.6104 34.9209 51.6012 34.9496 51.5817C34.9588 51.6012 34.9588 51.6104 34.968 51.6299C34.9301 51.6299 34.8923 51.6391 34.8544 51.6391ZM35.5541 51.6849C35.6779 51.592 35.8202 51.4211 35.9899 51.4968V51.5255C35.8676 51.6279 35.7136 51.6835 35.5541 51.6849ZM30.2734 52.45C30.302 52.2894 30.3307 52.1288 30.3674 51.9683C30.4718 51.9315 30.5853 51.8937 30.7 51.865C30.7081 51.9786 30.7276 52.0543 30.6702 52.1678C30.5188 52.1678 30.3777 52.3559 30.2734 52.45ZM52.1487 52.4695C51.9215 52.2516 51.6841 52.0348 51.457 51.8272C51.5797 51.9121 51.5797 51.912 51.6084 51.912C51.5511 51.7239 51.1267 51.3844 51.5327 51.3374C51.8734 51.6769 51.9778 51.9878 52.1578 52.4408C52.1578 52.45 52.1578 52.45 52.1487 52.4695ZM30.6427 52.4787C30.6519 52.403 30.6702 52.3376 30.6886 52.2711H30.7081C30.7184 52.3181 30.7276 52.3651 30.7459 52.403L30.6427 52.4787ZM32.0053 52.5165C31.9388 52.4878 31.8826 52.4592 31.816 52.4408L31.7587 52.0635C31.8069 51.8272 31.9674 51.6391 31.9961 51.3936C32.2324 51.3087 32.4687 51.233 32.7061 51.1573C32.7531 51.0163 32.791 50.6859 33.0089 50.6859C32.9424 51.2044 32.7336 52.2149 32.1372 52.3835C32.1005 52.4408 32.0718 52.5073 32.0053 52.5165ZM32.6591 52.5452C32.5926 52.4603 32.5444 52.3938 32.4412 52.3651C32.5169 52.2527 32.744 51.9602 32.877 51.7423H32.9711C32.8759 51.9878 32.8564 52.1575 32.838 52.4305C32.7715 52.4695 32.7153 52.5073 32.6579 52.5452H32.6591ZM39.502 52.6679C39.4263 52.45 39.3414 52.2435 39.2565 52.0256C39.2358 52.0152 39.2132 52.0089 39.19 52.0072C39.3036 51.865 39.4733 51.6104 39.6442 51.5634C39.7669 51.6861 39.7956 52.3376 39.814 52.5727C39.7107 52.6484 39.6442 52.6496 39.502 52.6679ZM38.3 52.6954C38.2713 52.6679 38.2713 52.6679 37.8641 52.5257C37.8641 52.4878 37.8641 52.4878 38.1864 51.9878C38.4984 51.9878 38.5466 51.9224 38.6223 51.6012C38.8115 51.4498 39.0099 51.3087 39.2084 51.1677V50.9601C40.3347 50.3372 41.414 49.6571 42.5599 49.0538C42.7204 48.9781 43.6288 48.4688 43.7619 48.5147C43.7711 48.5629 43.8089 48.6007 43.7802 48.6477C42.2571 49.2705 40.8084 50.1388 39.4263 51.0163C39.4171 51.0254 39.4171 51.0449 39.4171 51.0633C39.549 51.139 39.549 51.186 39.7199 51.2147C39.7107 51.233 39.7107 51.2606 39.7016 51.2801C39.3036 51.6482 38.698 52.5635 38.3 52.6954ZM40.1363 52.7711C40.1625 52.7235 40.1945 52.6792 40.2315 52.6392C40.2693 52.6679 40.2693 52.6679 40.2888 52.7149C40.259 52.7333 40.259 52.7333 40.1363 52.7711ZM33.1511 52.9696C33.103 52.9317 33.0559 52.903 33.0181 52.8755C33.0559 52.403 32.9516 52.13 33.1603 51.6482C33.2739 51.5909 33.3966 51.545 33.5101 51.4968C33.6329 51.3558 33.7659 50.9876 33.899 50.9222C33.899 50.9876 33.899 51.0633 33.9081 51.1287C33.9655 51.186 34.0217 51.139 34.0779 51.1011C34.1261 51.4223 34.0779 51.3271 34.4759 51.4498C34.5229 51.5163 34.57 51.5725 34.6181 51.6391C34.6365 51.6391 34.7787 51.6012 34.7787 51.6482C34.2488 51.7618 34.3624 52.1392 34.0687 52.2997C33.946 52.2997 33.8221 52.3089 33.7086 52.3181C33.5193 52.536 33.3404 52.7528 33.1511 52.9696ZM31.2666 52.9982C31.2288 52.8273 31.2288 52.8377 31.0487 52.809C30.9833 52.6576 30.7849 52.3089 30.8216 52.1483C30.9363 52.0818 31.0969 51.9304 31.2288 51.9304C31.3148 52.1013 31.3618 52.1105 31.5419 52.0726C31.4937 52.3089 31.4846 52.8572 31.2666 52.9982ZM37.5716 53.2529C37.0692 52.7895 37.0692 52.7895 37.0601 52.7711C37.4764 52.3376 37.6186 52.7906 37.6657 53.1955C37.6541 53.2099 37.6444 53.2257 37.637 53.2426C37.6186 53.2426 37.5911 53.2426 37.5716 53.2529ZM36.7573 53.5075L36.5967 53.4788C36.5485 53.3561 36.3879 53.0636 36.4166 52.9317C36.4453 52.9122 36.474 52.8939 36.4923 52.8744C36.4923 52.9409 36.5015 53.0074 36.5107 53.0728C36.6345 52.9604 36.6345 52.9604 36.6999 52.9122C36.7664 53.0154 36.9649 53.2712 36.9649 53.394C36.9033 53.4443 36.8329 53.4828 36.7573 53.5075ZM36.9373 53.6016C36.9649 53.5167 37.0979 53.488 37.1358 53.4031C37.0509 53.2529 36.8238 52.9501 36.8238 52.7906C37.013 52.6392 37.1828 52.5073 37.2677 52.2894C37.6748 52.0451 38.0637 51.771 38.4514 51.498C38.4514 51.4877 38.4422 51.4785 38.4422 51.4785C38.4135 51.4785 38.3848 51.4877 38.347 51.4877C37.8836 51.7331 37.3147 51.4028 36.8238 51.7515C36.8238 51.8558 36.8513 51.8662 36.9465 51.9029C36.927 51.9407 36.9087 51.9786 36.8995 52.0164C36.7756 52.0164 36.6816 52.0164 36.5783 51.9407C36.1608 51.9407 36.1608 52.4121 35.8007 52.0829C36.0565 51.8558 36.3214 51.6299 36.5772 51.4028C36.7573 51.3741 36.9373 51.3558 37.1163 51.3374L37.4948 50.9027C37.637 50.9027 37.637 50.9692 37.6553 50.7892C37.7987 50.874 37.9306 50.9497 38.0637 51.0346C38.5179 51.0346 38.6028 50.7708 39.0478 50.9692C39.0673 51.0254 39.0673 51.0254 39.057 51.1298L38.1486 51.8088C38.035 51.9786 37.8366 52.4225 37.6553 52.5165C37.6852 52.8755 37.8274 53.0636 37.6473 53.394C37.4202 53.4605 37.1748 53.5259 36.9373 53.6016ZM34.0125 53.8378V53.8092L33.8978 53.7518V53.6681C33.9552 53.6394 34.0022 53.6107 34.0584 53.5924C34.0504 53.4123 34.0504 53.4123 33.9747 52.9604C34.1158 52.7998 34.0779 52.6771 34.0882 52.4603C34.3245 52.3181 34.3337 52.2894 34.4094 52.0359C34.6078 51.912 34.8074 51.7239 35.0632 51.7606C35.0345 51.8272 35.0345 51.8467 35.0528 51.9212C35.1675 51.9212 35.2616 51.865 35.366 51.8088C35.1572 52.1759 35.0253 52.2149 34.6181 52.3181C34.4576 52.6392 34.4186 53.1485 34.4943 53.4972C34.4759 53.5454 34.4759 53.5454 34.4002 53.6578C34.2855 53.6681 34.1823 53.6773 34.079 53.6956C34.0504 53.7059 34.0309 53.8378 34.0125 53.8378ZM34.9875 54.073C34.8269 53.6956 34.8544 53.2529 34.9966 52.8652C35.1194 52.7711 35.2421 52.6771 35.366 52.5727C35.7066 52.6576 35.6114 52.8365 35.7445 53.0544C35.8018 53.0544 35.858 53.0636 35.9142 53.0636C35.9142 53.2815 36.1792 53.0453 36.2836 53.0258C36.3501 53.1863 36.4063 53.3469 36.4728 53.4972C36.3409 53.7243 36.1138 53.5167 36.0002 53.4226C35.8202 53.5167 35.6401 53.8092 35.5174 53.9697C35.4313 54.0076 35.4313 54.0076 34.9875 54.073ZM34.75 54.1108C34.5046 53.6199 34.6273 53.6016 34.5424 53.0728C34.6273 52.856 34.6847 52.6484 34.7225 52.4121C34.9209 52.3754 35.2042 52.1575 35.3373 52.1575C35.3481 52.1693 35.3609 52.179 35.3751 52.1862C35.3281 52.5165 35.1102 52.6197 34.8636 52.809C34.7982 53.2999 34.6743 53.6394 34.8361 54.0925C34.8074 54.1016 34.7787 54.1016 34.75 54.1108ZM29.4968 54.5455C29.412 54.1108 29.412 54.1108 29.3936 53.9319C29.6115 53.3091 29.8375 52.7906 30.1598 52.2229C30.1311 52.3754 30.1128 52.5257 30.0841 52.6679C30.2734 52.8377 30.3594 52.4408 30.5096 52.4408C30.4913 52.544 30.4626 52.6392 30.4718 52.7333C30.4861 52.7449 30.5019 52.7545 30.5188 52.762C30.4512 52.9564 30.385 53.1514 30.3204 53.3469C30.2539 53.3091 30.1782 53.2529 30.1116 53.2896C29.904 53.7059 29.7056 54.1303 29.4968 54.5455ZM36.2274 54.7061C35.9624 54.6488 35.8007 54.2152 35.6596 53.9984C35.7628 53.8562 35.8775 53.7231 36.0094 53.6016C36.4258 53.9319 36.4166 53.4697 36.7756 53.6486C36.7183 53.7243 36.6724 54.3471 36.6345 54.526C36.3879 54.4412 36.3879 54.4412 36.3019 54.7061H36.2274ZM33.681 54.7245C33.6615 54.7153 33.6432 54.7061 33.634 54.6958C33.634 54.5352 33.7476 54.3287 33.7946 54.1773C33.9265 54.1487 33.9747 54.0168 34.0217 53.894C34.0309 54.0546 34.079 54.2427 34.079 54.3654C33.9838 54.4606 33.8038 54.6958 33.681 54.7245ZM31.1439 55.3289C31.277 55.0731 31.4089 54.8185 31.5511 54.5639C31.7312 54.5639 31.769 54.5639 31.9009 54.4412C32.0523 54.6017 31.8069 54.7715 31.7208 54.8759C31.371 54.8759 31.4467 54.9034 31.371 55.2337C31.3045 55.2716 31.2196 55.2911 31.1439 55.3289ZM33.7854 55.517C33.7281 55.4138 33.6615 55.3186 33.6053 55.2245C33.6994 54.9607 33.9173 54.5364 34.1915 54.4503C34.1261 54.6958 33.946 55.064 33.946 55.2991C33.9552 55.3186 33.9747 55.3289 33.993 55.3473C33.9081 55.4321 33.9081 55.4321 33.7843 55.517H33.7854ZM33.6145 55.5549C33.4723 55.4413 33.4161 55.4035 33.2452 55.3759C33.4253 55.0731 33.4253 54.7715 33.4723 54.4125C33.6053 54.0454 33.8324 53.7816 33.6145 53.4318C33.1408 53.4318 32.9894 54.5926 32.9516 54.9412C32.9137 54.9412 32.8759 54.9412 32.8483 54.9504C32.7818 55.0364 32.7153 55.1775 32.6109 55.1959C32.9229 54.7715 32.9424 54.3276 33.0468 53.8092C33.15 53.6486 33.4631 53.2242 33.2739 53.0349C33.4344 52.8377 33.595 52.6484 33.7556 52.4695C33.8233 52.4603 33.8795 52.4603 33.9368 52.45C33.9368 52.6484 33.9747 52.7711 33.8324 52.9122C33.8611 53.1106 33.899 53.3091 33.9265 53.5075C33.868 53.5352 33.8113 53.5667 33.7567 53.6016C33.7567 53.6681 33.7567 53.7426 33.7659 53.8195L33.8508 53.8757C33.8324 54.0454 33.7476 53.9789 33.6707 54.0925C33.6053 54.3092 33.501 54.526 33.4723 54.7531C33.5101 54.7715 33.548 54.791 33.595 54.8185C33.595 55.3278 33.3966 55.0456 33.6524 55.5549H33.6145ZM34.5711 55.9139C34.4197 55.6868 34.2775 55.4608 34.1261 55.2337C34.1261 54.9412 34.4576 54.5547 34.258 54.3276C34.2293 54.2152 34.2293 54.2152 34.2201 53.8275C34.3429 53.8 34.3429 53.8 34.4576 53.8092C34.6468 54.1762 34.7787 54.526 35.0345 54.8472C35.2146 55.2142 35.1285 55.3094 34.9875 55.696C34.8458 55.7629 34.7069 55.8356 34.5711 55.9139ZM34.0779 56.1398C33.8886 55.9793 33.7751 55.9219 33.7751 55.6684C33.8508 55.5835 33.946 55.3943 34.0504 55.3656C34.1823 55.564 34.305 55.7625 34.4472 55.9609C34.4002 56.0458 34.1639 56.0458 34.0779 56.1398ZM35.8867 56.4415C35.7158 56.3658 35.5839 56.3383 35.46 56.3004C35.4027 56.102 35.1767 56.102 35.3465 55.8852C35.2994 55.8095 35.2237 55.782 35.148 55.7338C35.148 55.564 35.2616 55.3668 35.3281 55.2062C35.3281 54.8472 34.9118 54.6212 34.8636 54.3184C34.968 54.3001 35.0242 54.3001 35.0437 54.1957C35.2237 54.1773 35.4038 54.1498 35.5931 54.1303C35.9716 54.7245 35.9716 54.7245 36.0381 54.8093C36.5588 54.8759 36.3879 55.0273 36.3317 55.5078C36.5772 55.9988 36.5772 55.9988 36.6529 56.1869L35.8867 56.4415ZM32.7623 56.4702C32.7623 56.3669 32.7726 56.3291 32.8197 56.2247C32.9137 56.2247 32.9137 56.2247 32.9137 56.2442H32.8862C32.8575 56.3474 32.8105 56.3853 32.7623 56.4702ZM35.2513 56.6021L35.1664 56.5734C35.1572 56.4885 35.1572 56.4036 35.1572 56.3188H35.2994V56.6021H35.2513ZM30.2825 56.8475C30.1219 56.7156 29.951 56.5837 29.7813 56.4518C29.7813 55.1775 30.2917 53.847 30.6989 52.6576C30.7367 52.6301 30.7746 52.6002 30.8228 52.6002C30.9076 52.7998 30.8985 52.9604 31.1256 52.9604C31.1347 53.0923 31.1061 53.1955 31.2483 53.1955L31.5316 52.9122C31.7495 53.2999 31.7782 53.7908 31.8642 54.2244C31.7587 54.3471 31.5603 54.3379 31.4559 54.4228C31.1347 55.0456 30.8881 55.517 30.4431 56.0458C30.3674 56.2912 30.3491 56.5642 30.3112 56.8189C30.2917 56.8383 30.2917 56.8475 30.2825 56.8475ZM28.702 57.0746C28.8247 56.149 28.9578 55.1305 29.3076 54.2622C29.3454 54.4503 29.2892 54.8288 29.5347 54.8002C30.1403 53.535 30.1403 53.535 30.216 53.4318C30.2263 53.4502 30.2447 53.4605 30.2539 53.4697C29.9614 54.4033 29.7996 55.3094 29.6299 56.2809C29.4406 56.5172 29.4406 56.5172 29.412 56.5264C29.3168 56.0733 29.3168 56.0733 29.2789 55.9884H29.194C29.0713 56.4988 29.0816 56.7443 28.702 57.0746ZM35.6871 57.2811C35.6596 57.14 35.6412 56.9989 35.6114 56.867C35.6401 56.9989 35.6779 57.14 35.6871 57.2822V57.2811ZM46.7051 57.6114C46.6477 57.5174 46.6018 57.4417 46.5732 57.3384C46.6202 57.3293 46.6672 57.3293 46.7154 57.3189C46.7532 57.3671 46.7727 57.3946 46.7727 57.452C46.7808 57.452 46.7911 57.452 46.8094 57.4612C46.8094 57.499 46.8003 57.546 46.8003 57.5839C46.7624 57.5931 46.7337 57.6022 46.7051 57.6114ZM53.4356 57.6309C53.4447 57.5552 53.4551 57.4795 53.4734 57.4038C53.4356 57.3189 53.275 57.0827 53.2933 56.9989C53.5113 57.0265 53.5399 57.0368 53.72 56.9141L53.8427 56.9416C53.6822 57.3568 53.8611 57.4153 53.4356 57.6309ZM53.4734 57.8569C53.4663 57.8426 53.4565 57.8298 53.4447 57.819H53.4929C53.5021 57.8477 53.5021 57.8477 53.4734 57.8569ZM29.6482 58.8949C29.545 58.7538 29.4406 58.6024 29.3363 58.4613C29.2411 58.1115 29.4682 57.6309 29.2514 57.3476H29.1849C29.0814 57.53 28.9835 57.7156 28.8912 57.9039C28.8821 57.9039 28.8717 57.9142 28.8626 57.9142C28.8052 57.6963 28.7398 57.4795 28.6928 57.2627C29.0426 56.9232 29.1092 56.867 29.2227 56.3945C29.3076 56.8292 29.3076 56.8475 29.6104 56.4977C30.1977 56.9416 30.4053 57.0643 30.4718 57.8098C30.302 58.1402 30.1311 58.4705 29.951 58.8008C29.7239 58.8857 29.7239 58.8857 29.6482 58.8949ZM33.9643 59.0371C33.9643 59.0268 33.9552 59.0176 33.9552 59.0176C33.9747 58.9993 33.993 58.9717 34.0125 58.9522C34.0125 58.9798 34.0217 59.0084 34.0217 59.0371H33.9643ZM36.0656 59.083C35.9337 58.9522 35.9716 58.7068 35.9624 58.5267C36.3122 58.49 35.6871 58.1115 35.8018 57.8959C35.8018 57.819 35.7915 57.7353 35.7823 57.6596C35.9716 57.9807 36.1516 58.3008 36.3409 58.6219C36.3214 58.6311 36.1608 58.5646 36.1035 58.5646C36.0186 58.6873 36.0656 58.9419 36.0656 59.083ZM37.0027 59.2826C36.927 59.2539 36.927 59.2539 36.2182 59.1312V58.7446C36.3317 58.7722 36.4545 58.7722 36.5015 58.8857C37.0692 58.9431 36.8616 58.4522 36.88 57.9704L37.1071 57.7445C37.1736 57.772 37.1644 57.8477 37.2493 57.8569C37.2963 58.4705 37.2963 58.4705 37.2963 58.6494C37.1644 58.857 36.9752 59.0279 37.0417 59.2826H37.0027ZM34.1731 59.5556C34.1444 59.4145 33.993 59.4053 33.8611 59.3571C33.8611 59.2918 33.8508 59.2252 33.8508 59.1598H34.1261C34.305 58.8765 33.9552 58.5646 34.5138 58.5749C34.6938 58.7446 34.8831 58.9144 35.0723 59.075C35.0632 59.0933 35.0632 59.0933 34.9576 59.1312C34.6273 59.7345 34.6181 59.2631 34.1731 59.5556ZM29.2135 59.7918C29.1849 59.6599 29.1849 59.6599 29.1562 59.6129C29.1378 59.6026 29.1092 59.6026 29.0897 59.6026C29.0323 58.8949 28.8339 58.3099 29.1562 57.6871C29.1757 58.3673 29.1654 58.4522 29.5347 58.9717C29.4968 59.2814 29.4773 59.5934 29.2135 59.7918ZM31.0877 59.8951C30.7654 59.6783 30.6232 58.6024 30.5567 58.178C30.8503 58.1402 30.4248 57.0838 30.4534 56.9049C30.4674 56.8934 30.4828 56.8837 30.4993 56.8762C30.5188 56.7626 30.5475 56.188 30.567 56.1307C30.8124 55.8474 31.012 55.517 31.3618 55.3656C31.3802 55.5262 31.3802 55.5262 31.4467 57.1595C31.5132 57.2157 31.5694 57.2444 31.6451 57.2822C31.722 57.2444 31.7874 57.1308 31.8447 57.0551C32.0718 57.0551 32.1762 57.8007 32.1762 57.9991C31.1152 59.8767 31.1164 59.8767 31.0877 59.8951ZM33.4436 60.0086C33.283 59.6496 33.3863 59.3858 33.7189 59.169C33.7189 59.2631 33.7372 59.3571 33.7372 59.4523C33.8416 59.4902 33.946 59.5269 34.0504 59.5556C34.0687 59.6875 34.0687 59.6875 34.0687 59.754C33.8886 59.6875 33.8886 59.6875 33.6902 59.6404C33.681 59.6599 33.6615 59.6783 33.6524 59.6978C33.681 59.7723 33.7189 59.848 33.7476 59.9329C33.6329 59.9616 33.5388 59.9903 33.4436 60.0086ZM28.6355 60.1875C28.5834 59.3235 28.5834 58.4571 28.6355 57.5931C28.8064 58.2159 29.0048 58.9419 28.9291 59.5934C28.7203 59.9903 28.7203 59.9903 28.6355 60.1875ZM51.5809 60.3676C51.5809 60.1784 51.6187 59.9616 51.3813 59.9708C51.4192 59.7643 51.4673 59.5556 51.5052 59.3571C51.5809 59.3388 51.6463 59.3296 51.7231 59.3204C51.7793 59.1312 51.7793 58.9419 51.855 58.7538C51.8929 58.7538 51.9307 58.7446 51.9686 58.7446C51.9594 58.8949 51.9594 58.8949 51.9777 59.2826C51.7885 59.6783 51.6279 59.707 51.9686 59.9616C51.8734 60.2827 51.8837 60.2827 51.5809 60.3676ZM53.1614 60.5282C53.2555 60.1784 53.4069 60.113 53.6913 59.8951C53.6913 59.7161 53.6913 59.7161 53.6718 59.4799C53.6913 59.4707 53.72 59.4707 53.7475 59.4707C54.032 58.9798 53.72 58.5462 53.7579 58.0461C54.0985 58.3008 54.2121 58.8295 54.2591 59.2539C54.1272 59.2539 54.0985 59.6129 54.0607 59.7161C53.6248 59.8297 53.9184 59.8572 53.8427 60.1692C53.8336 60.1692 53.8232 60.1784 53.8141 60.1784C53.7762 60.1313 53.7475 60.0843 53.7108 60.0465H53.634C53.4734 60.207 53.322 60.3676 53.1614 60.5282ZM42.522 60.5741C42.2754 60.4904 41.6606 60.1784 41.4232 60.2162C41.2443 60.3676 41.2534 60.3389 41.0825 60.1875C40.7901 60.1875 40.5435 60.4422 40.2407 60.4709C40.1742 60.4126 40.0971 60.3679 40.0135 60.3389L39.8426 59.5464C39.6534 59.4994 39.3036 59.4707 39.2565 59.2723C39.502 58.9236 39.4928 58.9901 39.3598 58.5646C39.1992 58.5646 39.0478 58.6219 38.8964 58.6781C38.7358 58.6311 38.5844 58.5841 38.4227 58.5462C38.3 58.1597 38.3768 58.0461 38.6314 57.819L38.7737 57.3671C39.19 57.3855 39.1992 57.3189 39.3414 57.6688C39.4263 57.7066 39.6912 57.7066 39.7578 57.6596L39.7291 57.3568C39.7669 57.3476 39.8048 57.3384 39.8621 57.3293C39.872 57.295 39.8879 57.2627 39.9092 57.2341C40.1076 57.2157 40.0893 57.1962 40.0984 56.9989C40.5056 57.0081 40.9128 57.0173 41.3291 57.0368L41.4427 57.3671C41.5562 57.4038 41.6698 57.4417 41.7925 57.4703C41.7925 57.5277 41.812 57.5839 41.8499 57.6217C42.2662 57.546 42.2662 57.546 42.3224 57.546L42.6356 58.4522C42.7021 58.5175 42.7675 58.4613 42.8535 58.4613C42.9384 58.5749 43.1746 58.5749 43.3077 58.5841C43.5061 58.7722 43.5635 58.8857 43.8376 58.8949C43.8663 58.9327 43.8949 58.9614 43.9316 58.9981C43.8743 59.1495 43.7527 59.075 43.7137 59.3571C43.544 59.3675 43.3639 59.3858 43.1838 59.395C43.146 59.4799 43.146 59.4799 43.0703 59.8102C42.4463 59.9421 42.6069 59.8767 42.5507 60.5752L42.522 60.5741ZM47.4816 60.6406C46.9517 60.3298 46.5261 60.4433 45.9767 60.5466L45.4376 60.1222C44.8034 59.9421 44.8034 59.9421 44.7265 59.9042C44.6416 59.5372 44.5659 59.2814 44.2448 59.0268V58.9993C44.3962 58.9144 44.5476 58.8387 44.7082 58.7538C45.0775 58.7825 45.4376 58.8112 45.8161 58.8112C45.9481 58.6311 45.8345 58.3753 45.9676 58.1689C46.1098 58.178 46.1098 58.178 46.3552 58.2446C46.658 58.5657 46.611 58.6781 46.9712 58.4235C47.2258 58.4522 47.7752 58.5841 48.0023 58.5084C48.39 58.2342 48.5035 58.1413 48.9681 58.084C49.0621 58.6598 48.9864 58.5267 49.4888 58.4235L49.6585 58.5932C49.631 58.6689 49.5175 58.7343 49.4509 58.7825C49.28 58.9706 49.1103 59.1782 48.9486 59.3766C48.8075 59.395 48.6561 59.4053 48.5322 59.4707C48.5322 59.5842 48.5987 59.6691 48.6469 59.7723C48.6549 60.0281 47.6995 60.6028 47.4816 60.6406ZM40.6478 60.9239C40.5435 60.8299 40.4483 60.7358 40.3542 60.6498C40.3542 60.6314 40.3634 60.6223 40.3634 60.6039C40.4299 60.5752 40.5056 60.5557 40.5721 60.5282C40.6478 60.6406 40.7797 60.7828 40.8084 60.9147C40.7614 60.9147 40.7052 60.9147 40.6478 60.9239ZM52.1487 61.0753C52.0248 60.6601 51.9307 60.48 52.0729 60.0843C52.1108 60.1027 52.1108 60.1027 52.4698 60.4709C52.4228 60.745 52.3941 60.9056 52.1487 61.0753ZM40.9506 61.2072C40.6478 61.1785 40.2877 61.0375 40.1936 60.7071C40.2969 60.7071 40.524 60.9709 40.6008 61.0466C40.6949 61.0375 40.9128 61.0466 40.9977 60.9893C40.9977 60.8287 40.8084 60.6406 40.7144 60.5087C40.7144 60.4904 40.7235 60.4709 40.7235 60.4514C41.1594 60.2632 41.0068 60.5466 41.2718 60.4904C41.6411 60.2357 41.9542 60.5466 42.3511 60.6601C42.3511 60.6693 42.3603 60.6785 42.3603 60.6876C42.1527 60.7909 41.9439 60.8952 41.7455 60.9996C41.0734 61.1028 41.0734 61.1028 41.0458 61.1223C41.0355 61.151 41.0263 61.1682 41.0172 61.198C40.9977 61.2072 40.9793 61.2072 40.9506 61.2072ZM53.1798 61.3013C53.1546 61.1781 53.0917 61.0658 52.9997 60.9801C53.01 60.9618 53.0192 60.9434 53.0284 60.9342C53.091 60.9479 53.1516 60.9699 53.2085 60.9996C53.1993 61.0937 53.1993 61.198 53.189 61.2921C53.1798 61.2921 53.1798 61.2921 53.1798 61.3013ZM30.1025 61.3013C29.8753 61.2439 29.6953 60.9709 29.5255 60.8104V59.9616C29.5725 59.6404 29.6861 59.3388 29.7434 59.0176C29.8375 58.9901 29.9419 58.9717 30.0462 58.9522C30.2263 58.6116 30.3961 58.2824 30.5762 57.9521C30.5853 57.9796 30.5945 58.0175 30.6048 58.0553C30.3204 58.1127 30.8319 59.7643 30.8881 59.9799C30.8124 60.1784 30.7459 60.3951 30.6702 60.6028C30.169 60.3298 30.1782 61.0845 30.1782 61.3104C30.1403 61.3013 30.1208 61.3013 30.1025 61.3013ZM39.6442 61.6316C39.6155 61.6133 39.5869 61.6029 39.5685 61.5938C39.5593 61.0558 39.3127 60.8861 38.9916 60.4422C38.9251 60.16 38.9434 60.0465 38.7071 59.8859C38.7071 59.6794 38.8402 59.6599 38.5466 59.4707C38.4043 59.4615 38.2621 59.4615 38.1302 59.4615C38.2334 59.2069 38.3378 58.9522 38.4422 58.7068C38.5557 58.7068 38.6785 58.7343 38.792 58.7641C38.6223 59.3296 38.6406 59.1885 39.19 59.4053C39.2084 59.4328 39.2187 59.4615 39.237 59.4902C39.4171 59.5361 39.5869 59.5934 39.7669 59.6404C39.814 59.8951 39.8713 60.1497 39.9275 60.4055C39.9757 60.4422 40.1076 60.5087 40.1936 60.5661C39.9941 60.5936 40.0892 60.6498 40.0892 60.8207C39.7291 60.9904 39.7864 60.9618 39.9 61.3299C39.8426 61.424 39.7956 61.5181 39.7394 61.6029C39.7066 61.6083 39.6746 61.618 39.6442 61.6316ZM35.1859 61.6316L34.7879 61.2072C34.6273 60.7828 34.1915 60.1222 34.2867 59.6588C34.8544 59.6221 34.7879 59.6978 35.0815 59.2447C35.2799 59.2252 35.3373 59.2631 35.5174 59.3675C35.5644 59.8205 35.5931 59.8492 35.3281 60.1875C35.3281 60.6406 35.3855 61.1028 35.3751 61.5559L35.2903 61.5284C35.2329 61.5559 35.2329 61.5651 35.2146 61.6316H35.1859ZM38.6785 61.7348C38.6103 61.6954 38.5411 61.6579 38.4709 61.6224C38.3562 60.9342 37.9123 60.4904 37.5143 59.9134C37.5716 59.9134 37.7035 59.9524 37.7987 59.9524C37.8744 59.8297 37.8744 59.8297 37.9685 59.6313C38.1486 59.6221 38.3195 59.6129 38.4984 59.6129C38.659 59.7735 38.5271 59.7253 38.5271 59.9237C38.6028 59.9811 38.6876 60.0373 38.7737 60.0935C38.8872 60.6785 39.3976 60.9904 39.4274 61.5467C39.0765 61.4435 39.0191 61.6213 38.6785 61.7348ZM28.8626 61.8587C28.8052 61.4802 28.7307 61.1132 28.7112 60.7255C29.061 60.9056 29.061 61.1132 29.1849 61.4802C29.0897 61.5834 28.9383 61.7165 28.8912 61.8484C28.8821 61.8587 28.8821 61.8587 28.8626 61.8587ZM40.5343 61.9149C40.5148 61.7922 40.5056 61.6695 40.4861 61.5559C40.2028 61.5559 40.1558 61.7922 39.8335 61.6878C40.0032 61.3586 40.0227 61.3861 39.9275 61.0283C40.2602 60.8861 40.2785 61.0466 40.5618 61.2921L41.0068 61.3494C40.9977 61.4148 40.9977 61.471 40.9977 61.5375C41.1491 61.6786 41.1869 61.6878 41.1582 61.9046C40.9403 61.9046 40.7327 61.9149 40.5343 61.9149ZM41.0447 62.2257C41.102 62.1799 41.1686 62.0847 41.2443 62.0847L41.3291 62.1695C41.2821 62.1982 41.2821 62.1971 41.0447 62.2257ZM51.2586 62.8956C51.1554 62.7924 51.3813 62.5939 51.4478 62.5285C51.2873 62.4907 51.0785 62.5182 51.1072 62.3301C51.1921 62.3014 51.2873 62.2728 51.3721 62.2544C51.145 62.0468 51.0028 61.8759 50.7092 61.8105C50.5773 61.5467 50.8984 61.1223 51.0418 60.9331C50.9845 60.9331 50.9271 60.9331 50.8698 60.9434C50.8034 61.0352 50.7403 61.1294 50.6805 61.2256C50.4913 61.2256 50.2745 61.0466 50.1128 60.9526C50.1022 60.9254 50.096 60.8968 50.0944 60.8677L50.6622 59.9329C50.6713 59.9329 50.6908 59.9237 50.7092 59.9237C51.0498 60.8574 51.3435 61.8105 51.5992 62.774C51.5992 62.7832 51.5901 62.7923 51.5797 62.8107C51.3526 62.8864 51.3526 62.8864 51.2586 62.8956ZM30.4248 63.0286C30.1478 62.6915 29.9271 62.312 29.771 61.9046C29.459 61.8587 29.4028 62.2166 29.3351 62.4333H29.3076C29.194 62.2923 29.0713 62.1604 28.9578 62.0285C28.9956 61.8484 29.2032 61.6786 29.3168 61.5375C29.2881 61.2829 29.1654 61.0283 29.0805 60.792C28.4932 60.48 28.6825 60.4617 28.8912 59.9237C28.8912 60.0843 28.8442 60.4238 28.9383 60.5557H28.9956C29.0897 60.4422 29.0426 59.9054 29.0426 59.7528H29.0805C29.0805 59.8297 29.0897 59.9054 29.1378 59.9708C29.2411 59.9708 29.3168 59.8951 29.3925 59.8297C29.3925 60.1692 29.3833 60.5179 29.3833 60.8574C29.6482 61.1132 29.8088 61.3861 30.1782 61.4332C30.1782 61.6786 30.1782 61.9333 30.1873 62.1787C30.4248 63.0183 30.4248 63.0195 30.4248 63.0286ZM38.8585 63.3865C38.5374 63.2833 38.2048 63.1697 37.8836 63.0653C37.8836 62.9243 38.1394 62.8486 38.1394 62.6788C38.0596 62.5916 37.9774 62.5067 37.8928 62.4242C37.9685 62.1879 38.0728 61.7452 38.4043 61.7452C38.7163 61.8862 38.9147 61.9057 39.1705 61.6224C39.455 61.7073 39.7486 61.8014 40.0319 61.8954C40.1363 61.8392 40.2407 61.783 40.3531 61.7257C40.3921 61.9895 40.3921 61.9895 40.4104 62.0376C40.4678 62.056 40.4678 62.056 41.0447 62.0663C40.8841 62.2269 40.4299 62.0938 40.2877 62.2923C40.2877 62.4528 40.2877 62.5285 40.1936 62.6593H39.9378C39.8713 62.7924 39.8048 62.9346 39.7383 63.0665C39.2749 63.0757 39.2749 63.0757 39.0856 63.094L38.9147 63.3773C38.8964 63.3773 38.8769 63.3865 38.8585 63.3865ZM36.17 63.8866C36.1127 63.8292 36.0473 63.7833 35.9899 63.7363C35.9899 63.6893 36.3879 63.5562 36.435 63.5379C36.435 63.5666 36.1895 63.8774 36.1711 63.8866H36.17ZM35.9245 64.5472C35.4508 64.4715 35.0815 64.3018 34.6457 64.1045C34.4759 64.132 34.3153 64.2364 34.1536 64.3018C34.0309 63.8304 33.7372 63.7455 33.3025 63.6595C33.2268 63.2638 33.142 62.8681 33.0651 62.4712C33.0754 62.2739 33.1408 61.8679 33.1603 61.6408C33.0376 60.3952 33.0376 60.3952 33.0273 60.1692C33.1133 60.066 33.1603 60.0178 33.1695 59.8859C33.0846 59.8285 32.9997 59.9329 32.9332 59.9799C32.9516 59.6404 32.9516 59.6404 32.9424 59.4053H32.8472C32.7245 59.9616 32.6579 60.5649 32.5834 61.1407C32.5174 61.1299 32.4507 61.1237 32.3838 61.1223C31.3997 59.7345 31.3997 59.7345 31.3802 59.6886C31.6646 59.1782 31.9583 58.6678 32.2416 58.1597C32.3563 58.4418 32.3563 58.4418 32.3746 58.4613C32.8105 57.7341 33.2647 57.0173 33.7567 56.3188C33.7189 56.2064 33.681 56.055 33.5858 55.9609C33.5193 55.9701 33.4631 55.9884 33.4058 55.9988C33.4058 55.9322 33.4344 55.8474 33.3874 55.8003H33.2922C33.2463 55.8944 33.1982 55.9793 33.1511 56.0733C32.9997 56.055 32.9997 56.0928 32.9997 56.2339C32.9823 56.2235 32.9626 56.2172 32.9424 56.2155C32.9711 56.1685 32.9516 56.0733 32.9424 56.0263C33.0456 55.7441 33.0273 55.6019 33.3209 55.4987C33.5858 55.6489 33.6329 55.696 33.7086 55.9988C33.8038 56.0733 33.9081 56.1593 34.0022 56.2442C33.993 56.3188 33.9747 56.3945 33.9643 56.4793C33.9368 56.4323 33.9185 56.4323 33.8795 56.414C33.7281 56.6204 33.7281 56.6204 33.7086 56.6778C33.8324 56.781 33.9643 56.9324 34.1352 56.8842C34.211 57.0643 34.4002 57.0551 34.5803 57.093C35.0253 57.5082 34.8739 58.2251 35.6401 58.1872C35.6871 58.1218 35.6871 58.1218 35.7066 58.1218C35.764 58.2067 35.8202 58.3008 35.8764 58.3856C35.858 58.3948 35.8385 58.404 35.8305 58.4143C35.858 58.8295 35.8488 58.9144 35.6217 59.2447C35.1572 58.9901 34.8074 58.4613 34.2867 58.4327L33.8038 58.178C33.6432 57.8385 33.8221 57.819 33.4436 57.7066C33.4058 57.6114 33.3679 57.5174 33.3404 57.4233C33.3602 57.4114 33.3827 57.4047 33.4058 57.4038C33.4058 57.3189 33.4058 57.3098 33.3484 57.2432H33.3117C33.2452 57.3476 32.3941 58.4418 32.4974 58.7446C32.6201 58.8192 32.7623 58.8857 32.8002 58.9144C32.8759 59.0555 33.1133 59.4994 33.283 59.4615C33.2922 59.4902 33.2922 59.4902 33.1982 59.7723C33.3117 60.0361 33.3117 60.0361 33.3874 60.1405C33.5572 60.1405 33.7464 60.0751 33.9173 60.0373C33.9173 59.9616 33.899 59.9146 33.8703 59.8389C33.9643 59.8675 34.0596 59.8962 34.1639 59.9329C34.4002 60.5557 34.57 61.3483 35.1664 61.7452C35.2329 62.2636 35.2708 62.8119 35.2903 63.3303C35.5082 63.5184 36.7102 64.2169 35.9245 64.5472ZM31.5419 64.7743C31.1439 64.2353 30.9352 63.9336 30.661 63.3108C30.5475 62.9243 30.4339 62.5469 30.3296 62.1695C30.3296 61.736 30.3204 61.3013 30.3204 60.8677C30.4053 60.8104 30.481 60.753 30.567 60.698C30.6243 60.7633 30.6324 60.7725 30.7184 60.792L31.0017 60.0843C31.059 60.1313 31.0866 60.1497 31.1531 60.16C31.2196 60.0751 31.2861 59.9903 31.3618 59.9054C32.1762 61.065 32.1762 61.065 32.3368 61.2634C32.4125 61.2726 32.4882 61.2726 32.5639 61.2829C32.5639 61.4802 32.6212 61.6695 32.6304 61.8679C32.6109 61.9711 32.5639 62.6696 32.4503 62.7361C32.3173 62.9621 32.1854 63.1984 32.0523 63.4335C31.9296 63.4335 31.8069 63.4335 31.683 63.4438C31.6176 63.5092 31.6371 63.726 31.6371 63.8304C31.5603 63.8395 31.5041 63.8396 31.4559 63.8877C31.5419 64.7262 31.5419 64.7262 31.5419 64.7743ZM44.2069 64.8019C44.1117 64.4624 44.7552 64.764 44.7747 64.7743L44.2069 64.8019ZM43.6197 64.9246C43.0519 64.6986 42.569 64.5667 42.1056 64.1894C42.4463 63.726 43.0989 64.444 43.4017 64.6711C43.5245 64.6711 43.6483 64.6791 43.7802 64.6895C43.7619 64.7835 43.6862 64.8592 43.6197 64.9246ZM39.7578 64.9819C39.6064 64.9062 39.4366 64.7835 39.276 64.764C39.2084 64.8214 39.1522 64.8787 39.0856 64.9441C38.9824 64.9154 38.8585 64.6046 38.8012 64.5094C38.4709 64.397 38.1486 64.2834 37.8262 64.1791C37.8262 63.9152 38.2621 64.2548 38.2621 63.9439C38.1394 63.6228 38.1394 63.6228 37.9685 63.2362C38.2621 63.3303 38.6796 63.5287 38.9813 63.5287C39.0386 63.4335 39.096 63.3303 39.1613 63.2259C39.8243 63.094 39.7578 63.3865 40.0227 62.8015C40.0984 62.8015 40.1833 62.7924 40.2693 62.7832C40.3921 62.6031 40.4391 62.5561 40.4483 62.3393C41.0734 62.2074 40.9311 62.1604 40.7419 62.7453C40.7327 62.7912 40.7327 62.8486 40.7327 62.8956C40.7706 62.9438 41.0447 63.2259 41.0263 63.2833C40.969 63.2362 40.8933 63.1319 40.8279 63.1984C40.8279 63.2924 40.8841 63.4438 40.8371 63.5287C40.6192 63.6985 40.4104 63.8682 40.1833 64.038C40.0227 64.0666 39.8897 63.9244 39.7199 63.9244C39.3598 64.3396 39.6626 64.444 39.7956 64.9716C39.7761 64.9819 39.7761 64.9819 39.7578 64.9819ZM34.9863 65.2836C34.3715 65.1804 33.8886 64.9819 33.3117 64.7262C33.3209 64.4153 33.3301 64.1045 33.3301 63.7925C33.7659 63.8682 33.9265 63.9909 34.0412 64.4348C34.2018 64.5381 34.4656 64.2548 34.656 64.2548C34.8636 64.3488 35.0632 64.4532 35.2811 64.5472C35.3178 64.7457 35.3556 64.9716 35.3373 65.1701C35.2146 65.2171 35.1182 65.2641 34.9863 65.2836ZM33.3496 66.2838C32.5639 65.9534 32.3173 65.5199 31.6933 64.8305C31.5786 64.0758 31.5786 64.0758 31.5889 63.991C31.8344 63.9336 31.7495 63.8396 31.7587 63.5849C32.3173 63.5849 32.214 63.3968 32.526 62.8589C32.5352 62.8589 32.5547 62.8486 32.5639 62.8486C32.5822 62.8956 32.5822 62.8956 32.6109 63.6973C32.7818 64.0667 33.0376 64.4062 32.9894 64.8122C32.8667 64.8581 33.283 65.4717 33.3587 65.5853C33.5296 65.7929 33.6994 65.9913 33.8703 66.1989C33.6953 66.218 33.5215 66.2463 33.3496 66.2838ZM52.8862 66.3411L52.8586 66.3124C52.9045 66.2929 52.9045 66.2929 52.924 66.3021C52.924 66.3124 52.924 66.3216 52.9343 66.34H52.8862V66.3411ZM52.3758 66.3595C52.3184 66.2459 52.2909 66.161 52.3287 66.0291C52.3471 66.1324 52.3666 66.2459 52.3758 66.3595ZM49.3362 66.4535C49.1481 66.3124 49.5266 66.1519 49.6402 66.1048C49.5998 66.2293 49.5355 66.3446 49.4509 66.4444C49.4131 66.4444 49.3752 66.4535 49.3362 66.4535ZM48.3808 66.5946C48.0115 66.3595 48.1916 66.5006 48.1916 66.1989C48.0218 66.1048 47.6903 65.981 47.6903 65.7458C48.3246 65.4625 48.1721 65.5096 48.7972 65.9156C48.7972 66.114 48.4565 66.3778 48.3808 66.5946ZM58.4146 66.6898C58.5179 66.0383 58.5477 65.4155 58.566 64.7365C59.2343 63.8435 59.7876 62.8702 60.2131 61.8392C59.885 63.5441 59.2773 65.1831 58.4146 66.6898ZM52.6969 66.9536V66.8963H52.7451C52.7236 66.9101 52.7068 66.9301 52.6969 66.9536ZM33.0181 67.105C32.9424 66.8022 32.8759 66.5097 32.8105 66.2172C32.9997 66.2172 33.1982 66.387 33.3966 66.4065C34.3142 66.2746 34.1444 66.3124 33.5675 65.5944C33.8038 65.6977 34.2958 65.9351 34.6652 66.0853C34.6181 66.5292 34.1066 66.7552 33.7751 67.0201L33.0181 67.105ZM48.5035 67.4158C48.4278 66.9341 48.3625 66.9249 47.9644 66.5854C47.7465 66.6325 47.5481 66.7277 47.3393 66.8125L47.3118 66.4444C47.2361 66.3778 47.1512 66.3124 47.1031 66.2264C47.1409 66.1519 47.1696 66.0762 47.2178 66.02C47.274 66.0096 47.3393 66.0005 47.3967 65.9913C47.4254 65.9534 47.415 65.8881 47.3967 65.8491L47.5573 65.8215C47.7087 66.067 47.7844 66.114 48.031 66.2551C48.031 66.34 47.9736 66.3973 47.9839 66.4914C48.1354 66.5854 48.9015 67.0006 48.8075 67.2656C48.7031 67.3115 48.5987 67.3688 48.5035 67.4158ZM32.081 67.5581C31.6933 67.1899 30.8606 66.0383 30.9742 65.5669C31.059 65.6048 31.1256 65.6518 31.2196 65.6518C31.2861 65.5669 31.2666 65.3215 31.2666 65.2079C31.2483 65.1895 31.2483 65.1896 30.8881 65.1138C30.8698 64.8122 30.9547 64.6321 31.0487 64.3488C31.2861 64.6791 31.4559 64.8684 31.5316 65.2641C30.8503 65.755 32.1384 66.7277 32.2886 67.2656C32.1189 67.3505 32.1842 67.4262 32.081 67.5581ZM52.9057 67.5764C52.9527 67.5191 52.9997 67.4629 53.0479 67.3975C53.0571 67.3975 53.0662 67.3975 53.0766 67.4067C53.0123 67.4558 52.9557 67.5128 52.9057 67.5764ZM53.3128 67.643C53.3128 67.5386 53.3128 67.4629 53.2463 67.3975C53.2933 67.3401 53.2933 67.3401 53.4929 66.9536L53.6065 66.9823C53.6443 67.0672 53.7292 67.1796 53.6718 67.2553C53.4539 67.2174 53.4929 67.4916 53.4826 67.6235C53.4172 67.6326 53.369 67.643 53.3128 67.643ZM56.3799 68.0949C56.3345 68.0123 56.2871 67.9308 56.2377 67.8506C56.0771 67.8219 55.8591 67.9733 55.7169 68.0478C55.897 67.7932 56.0667 67.5477 56.2468 67.3023C56.3982 67.2174 57.5062 66.5476 57.6198 66.5854C57.6003 66.6233 57.6003 66.6233 57.6003 66.6795C57.676 66.7368 57.7608 66.7368 57.856 66.7277C57.6576 66.9444 57.5154 67.0098 57.2413 67.1234C56.9086 67.4067 56.7676 67.8402 56.3799 68.0949ZM55.499 68.1614C55.4416 68.0857 55.4416 68.0857 55.4049 68.0673C55.546 68.0673 55.546 68.0673 55.6596 68.0765C55.6022 68.0949 55.5563 68.1339 55.499 68.1614ZM47.6616 68.1992C47.4059 67.9813 47.1501 67.8597 47.0274 68.1614C46.7337 67.7278 46.7337 67.7278 46.6959 67.6235C46.7624 67.2656 46.7624 67.2277 46.5445 66.9444C46.564 66.6049 46.8289 66.1989 47.1604 66.4719C47.1983 66.6233 47.1604 66.8217 47.2178 66.9536C47.4632 66.9536 47.6903 66.7747 47.9358 66.7357C48.1732 66.9536 48.3625 67.0672 48.343 67.4353C47.766 67.4915 47.5859 67.5478 47.6892 68.1992H47.6616ZM31.3056 68.0582C31.2414 67.9681 31.1839 67.8734 31.1336 67.7749C31.2196 67.7554 31.2013 67.6797 31.2391 67.6716C31.3045 67.8024 31.7117 68.2371 31.4754 68.2933C31.418 68.2176 31.3607 68.143 31.3045 68.057L31.3056 68.0582ZM46.8198 68.322C46.7051 67.9825 46.7051 67.9825 46.6959 67.9068C46.7624 68.01 46.8381 68.1132 46.9046 68.2279C46.876 68.2841 46.8771 68.2841 46.8198 68.322ZM55.1388 68.3598C55.1583 68.322 55.187 68.3025 55.2157 68.2749C55.2249 68.3128 55.1675 68.3403 55.1388 68.3598ZM48.031 68.4172C47.9862 68.3568 47.9276 68.308 47.8601 68.2749C47.7178 67.5948 47.8887 67.6326 48.5597 67.5478C48.7972 67.4158 48.7972 67.4158 48.8924 67.378L48.8637 67.7749C48.5884 67.9813 48.3051 68.1992 48.031 68.4172ZM48.5414 68.681C48.5322 68.5949 48.5322 68.5949 48.5139 68.5296C48.4382 68.5009 48.1927 68.4722 48.1927 68.463C48.9956 67.8402 48.9956 67.8402 49.0243 67.8127V67.3126C48.9015 67.105 48.9015 67.105 48.8924 67.0488C49.0151 67.1234 49.1378 67.1899 49.2709 67.2656C49.3282 67.5007 49.3741 67.7278 49.4314 67.963C49.2043 68.1809 49.0151 68.5387 48.6836 68.5101C48.6079 68.6133 48.6079 68.6133 48.5414 68.681ZM46.8668 68.681C46.876 68.5582 46.876 68.4917 46.9517 68.3885C46.9608 68.416 46.9608 68.4172 46.8668 68.681ZM41.0745 69.048C40.6192 68.6615 40.4391 67.8597 40.2212 67.2839L40.0514 66.3205C40.1179 65.9821 40.3542 65.6793 39.947 65.5749C39.8518 65.6518 39.8335 65.7458 39.7864 65.8502C39.6912 65.8399 39.5869 65.8399 39.4928 65.8307C39.4379 65.7402 39.3843 65.6488 39.3322 65.5566C39.4355 65.5566 39.596 65.4442 39.596 65.3306C39.5215 65.2549 39.3414 65.2733 39.237 65.2641C39.1992 65.1895 39.1418 65.1414 39.1418 65.0576C39.4458 64.7824 39.6534 65.1987 39.9092 65.0381C39.9092 64.7365 39.6912 64.4819 39.6534 64.1894C39.8426 64.0001 39.9378 64.2169 40.1741 64.2169C40.4299 64.0001 40.704 63.7925 40.969 63.5849C40.969 63.5092 40.969 63.4438 40.9506 63.367C41.0929 63.367 41.0929 63.367 41.1491 63.3395C41.1491 63.1605 40.9598 63 40.8463 62.8772C40.8933 62.7167 40.9311 62.5652 40.9793 62.4058C41.4714 62.3209 41.4714 62.3209 41.5276 62.2911C41.5276 62.2636 41.5367 62.2361 41.5471 62.2074C41.7363 62.3209 41.9439 62.4333 42.1056 62.5744C42.1056 62.6696 41.9164 62.821 41.859 62.8956C41.9347 63.1594 41.9347 63.1594 41.9439 63.2454H41.7363C41.6514 63.3578 41.7455 63.6606 41.812 63.7638C42.0873 63.9336 42.0873 63.9336 42.1056 63.9531C42.0299 64.0472 41.9347 64.1229 41.9347 64.2364C42.4647 64.6413 42.9384 64.8019 43.5635 65.0381C43.7619 65.0186 43.8181 64.8776 43.9225 64.717C43.9982 64.7078 43.9982 64.7078 44.0739 64.717C44.0647 64.7835 44.0647 64.8489 44.0647 64.9154C43.7045 64.9911 44.036 66.1886 44.0647 66.3124C44.0177 66.3021 43.989 66.2264 43.9695 66.1794H43.8938C43.4212 66.6898 42.9475 67.0006 42.3603 67.378C41.8212 67.5294 41.8212 67.5294 41.8028 67.5569C41.6228 68.6615 41.6228 68.6615 41.5941 68.7372C41.4232 68.8312 41.2443 68.9436 41.0734 69.048H41.0745ZM32.6396 69.048C32.4687 68.954 32.2794 68.822 32.0902 68.7934C31.7874 68.4068 31.4754 68.01 31.2196 67.5856C30.5796 65.8354 29.8721 64.1105 29.0988 62.415C29.1745 62.4723 29.3363 62.6513 29.3638 62.6696C29.5725 62.5664 29.412 62.0847 29.6861 62.0663C29.904 62.6134 30.1403 62.9151 30.5291 63.3773C30.8881 64.1607 30.9925 64.1137 30.7367 64.8592C30.7562 65.2744 30.7276 65.2263 31.1347 65.302C31.1244 65.3593 31.1244 65.4247 31.1244 65.482C31.0304 65.4442 30.879 65.3215 30.7838 65.3788C30.879 66.3021 31.5694 67.2553 32.2232 67.8689C32.3838 68.2554 32.5352 68.6328 32.6591 69.0297C32.6488 69.0388 32.6396 69.0388 32.6396 69.048ZM47.2361 69.3887C47.0812 69.3601 46.9333 69.3021 46.8003 69.2178C46.8003 69.1237 46.8003 69.1237 46.8576 68.8404C46.9608 68.9918 47.1983 69.2281 47.2361 69.3887ZM47.3015 69.4827C47.3015 69.4632 47.2923 69.454 47.2923 69.4449C47.321 69.4357 47.321 69.4357 47.3588 69.4632C47.3393 69.4724 47.321 69.4724 47.3015 69.4827ZM52.4985 69.6054C52.4515 69.5859 52.4136 69.5676 52.3654 69.5481C52.5455 69.454 52.5455 69.454 52.6212 69.4357C52.612 69.4816 52.6029 69.5206 52.6029 69.5676C52.5666 69.5745 52.5306 69.5873 52.4985 69.6054ZM41.8499 69.6054C41.8212 69.5768 41.7925 69.5584 41.7638 69.5297C41.7742 69.1707 41.7742 69.1707 41.8017 69.048C41.8969 69.1512 41.9921 69.2556 42.0953 69.36C42.0773 69.4312 42.0647 69.5037 42.0575 69.5768C41.9818 69.5859 41.9164 69.5859 41.8499 69.6054ZM50.1885 69.9163C50.4534 69.5297 50.7849 69.1811 51.1921 68.954C51.2873 68.8404 51.4857 68.4917 51.6187 68.4539C51.722 68.5571 51.7701 68.5479 51.9307 68.5571C51.6841 68.7842 51.6841 68.8404 51.363 68.9161C51.2116 69.134 51.0602 69.3508 50.8984 69.5768L50.1885 69.9163ZM48.078 70.2948C47.6146 70.1342 47.5768 70.0769 47.3588 69.6433C47.5859 69.4449 47.8039 69.5768 48.031 69.7557C48.0402 70.0012 48.0493 70.0482 48.2111 70.2283C48.2007 70.2856 48.125 70.2948 48.078 70.2948ZM34.4943 71.0678C34.1261 70.7375 33.8416 70.5483 33.6707 70.086C33.7086 70.0952 33.7086 70.0952 33.9265 70.2374C33.993 70.1904 34.0687 70.2179 34.1536 70.2283C34.1823 70.1996 34.1823 70.1996 34.2018 70.1526C34.2396 70.1434 34.2775 70.1434 34.3153 70.1434C34.3532 70.1812 34.3532 70.1812 34.5046 70.4359C34.3899 70.624 34.5229 70.8522 34.4943 71.0678ZM28.8339 62.7637C28.9853 63.0653 29.147 63.3681 29.3168 63.6606C29.7148 64.7365 30.1403 65.755 30.6897 66.7552C30.8033 67.0672 30.926 67.3688 31.0682 67.6613C31.0487 67.5948 31.0395 67.5294 31.0212 67.4629C30.4048 65.8382 29.7451 64.2303 29.0426 62.6409C29.0426 62.6983 29.1459 63.0653 29.1459 63.1227C28.9628 62.7732 28.7989 62.4141 28.655 62.0468C28.1574 59.6526 28.217 57.1761 28.8292 54.8086C29.4413 52.4411 30.5896 50.246 32.1854 48.3931C34.2775 47.2691 37.1266 47.4778 39.3976 47.6005C39.4189 47.6236 39.4381 47.6486 39.455 47.6751C39.4928 47.6476 39.4928 47.6476 39.5123 47.6189C39.814 47.6384 40.1179 47.6659 40.4207 47.6946C40.4483 47.7416 40.4483 47.7416 40.4586 47.8357C40.524 47.846 40.524 47.8827 40.5159 47.9504C40.61 47.9389 40.61 47.9389 40.7327 47.893C40.7511 47.9022 40.7706 47.9205 40.7901 47.9309V48.0157C40.9793 48.0157 41.0734 47.7978 41.1307 48.0719C41.3578 47.9309 41.5471 48.1098 41.773 48.213C41.7826 48.1921 41.7958 48.1731 41.812 48.1568H41.8969C41.9634 48.2704 41.9818 48.3461 42.1148 48.4023C42.1332 48.3644 42.1435 48.3266 42.1527 48.299C42.0575 48.2417 41.9061 48.1568 41.9726 48.0352C42.0758 48.0352 42.1435 48.0628 42.2376 48.1006C42.2571 48.0249 42.2571 48.0249 42.2754 48.0066C42.3993 48.0157 42.5128 47.9962 42.6447 48.0157C42.636 48.0694 42.6264 48.1229 42.6161 48.1763C43.0141 48.0249 43.3077 48.1385 43.7424 48.213C43.7619 48.1763 43.7802 48.1476 43.7997 48.1098C43.7711 48.0811 43.7711 48.0811 42.7961 47.8919C42.7961 47.8265 42.8535 47.8173 42.9108 47.799C42.8535 47.7611 42.8053 47.7324 42.7583 47.7038C42.7583 47.4973 43.0898 47.6464 43.2217 47.3929C43.1948 47.3471 43.1816 47.2946 43.1838 47.2415C43.3547 47.2415 43.8559 47.7508 44.0452 47.9114C44.0833 47.884 44.125 47.862 44.1691 47.846C43.9982 47.6946 43.8181 47.5535 43.6483 47.4113C43.724 47.3929 43.7906 47.3838 43.8663 47.3643C43.8559 47.3459 43.8559 47.3264 43.8559 47.3069C43.9041 47.261 43.9317 47.2702 43.9982 47.2702C44.0074 47.2324 44.0073 47.1945 44.0073 47.1566C44.0934 47.128 44.1588 47.1761 44.2345 47.2037C44.2345 47.1945 44.254 47.1945 44.254 47.1853C44.2161 47.1761 44.1966 47.1475 44.1691 47.1096C44.1209 47.1004 44.0647 47.1004 44.0085 47.1004C43.989 47.0626 43.9798 47.0052 44.0177 46.9777C43.9133 46.808 43.8754 46.8355 43.8938 46.6279C43.9225 46.6095 43.9603 46.582 43.9982 46.5625C43.9982 46.5247 43.9982 46.5247 43.9511 46.4398C43.8938 46.5052 43.8181 46.4971 43.7332 46.4971C43.7045 46.543 43.6862 46.59 43.6575 46.6279C43.7149 46.6566 43.7607 46.6852 43.8181 46.7036C43.8181 46.7414 43.8181 46.7701 43.8284 46.8068C43.6392 46.8837 43.6105 46.8928 43.5348 47.0626C43.6575 47.1004 43.638 47.1853 43.638 47.3081C43.4774 47.4205 42.9189 47.0052 43.2595 46.6944C43.146 46.6657 43.0049 46.6852 42.9005 46.6279V46.5338C42.9384 46.5052 42.9762 46.496 43.0232 46.4765C42.834 46.4203 42.6734 46.543 42.4933 46.5533C40.8841 45.5623 39.1522 44.5232 37.2115 44.4578C39.4415 43.3401 41.9018 42.7588 44.3962 42.7603H44.6141V43.0998C44.5189 43.0998 44.434 43.0998 44.348 43.1089L47.3588 43.5907C50.1506 44.7606 50.1506 44.7606 50.1885 44.7606C50.1609 44.7319 50.1311 44.7032 50.1128 44.6746C50.1988 44.6379 50.2928 44.5897 50.3777 44.6C50.4534 44.4303 50.8331 44.5243 50.965 44.5151C50.923 44.4893 50.8788 44.467 50.8331 44.4486C51.012 44.3913 51.2116 44.3637 51.3905 44.3546C53.3404 45.2974 55.0723 46.6187 56.4831 48.2314C56.3512 48.1947 56.0473 48.0914 55.6791 47.9962C54.4105 47.7129 53.1614 47.6292 51.8734 47.5627C50.7757 47.2037 50.7757 47.2037 50.7379 47.1761C50.7287 47.1475 50.7287 47.128 50.7287 47.1004C50.7757 47.0534 50.8227 47.0534 50.8422 46.9869C50.7574 46.902 50.747 46.7793 50.7195 46.6657C50.6151 46.543 50.5108 46.4111 50.4064 46.2884C50.3972 46.3354 50.3972 46.3916 50.3972 46.4398C50.1128 46.6279 49.0151 46.7128 48.8637 46.9582C48.9967 47.1696 49.1078 47.3941 49.1952 47.6281C47.964 47.7205 46.7382 47.8748 45.5225 48.0903C45.5133 48.1006 45.503 48.1098 45.503 48.119C45.5225 48.1385 45.5409 48.1763 45.5604 48.2038C46.7624 48.0249 47.9828 47.846 49.2043 47.7795C49.4131 47.9871 49.7721 48.2612 50.0474 48.3736C50.1047 48.3277 50.1609 48.2704 50.2171 48.2233C50.2263 47.893 50.2263 47.893 50.255 47.8643H50.3502L50.747 48.4585C50.7849 48.4206 50.8044 48.4206 50.8617 48.4206C50.8514 48.3644 50.8514 48.3644 50.7092 48.0811C50.7287 47.6281 51.4949 48.3736 51.5809 48.4401C51.6284 48.4417 51.6756 48.4478 51.722 48.4585C51.722 48.3931 51.7323 48.3736 51.7701 48.3266C51.6749 48.2417 51.6749 48.2417 51.6371 48.1855C51.6462 48.1643 51.6591 48.1449 51.6749 48.1281C51.808 48.1281 51.9307 48.1752 52.0626 48.2038C51.9778 48.0719 51.808 47.8827 51.808 47.7221C51.9972 47.7221 52.1383 47.8827 52.2897 47.8827C52.214 47.8265 52.1383 47.7795 52.0821 47.7221C53.6535 47.7886 55.2157 47.9114 56.6919 48.478C59.1362 51.3622 60.4779 55.0202 60.4781 58.8008C60.4781 59.5085 60.431 60.1979 60.345 60.8769C59.9573 62.2257 59.3517 63.3486 58.5282 64.5186C58.5087 64.4624 58.4433 63.8487 58.3298 63.0653C57.5624 59.4145 55.8408 56.2339 53.2463 53.5454C53.0949 53.0636 53.0479 52.8755 52.6694 52.5452C52.6694 52.5073 52.6786 52.4603 52.6877 52.4225C52.6194 52.3801 52.5502 52.3392 52.4801 52.2997C51.8929 52.403 51.9778 51.6196 51.9112 51.2801C51.9399 51.2422 51.9399 51.2422 52.0913 51.139C51.9399 50.8935 51.5419 50.4221 51.5419 50.1296C51.5706 50.101 51.5901 50.0918 51.5706 50.0539C51.41 50.0448 51.2494 50.0344 51.098 50.0344C51.0693 50.0069 51.0693 50.0069 50.9833 49.7615C50.8801 49.6949 50.7849 49.6192 50.6805 49.5538C50.6805 49.5252 50.6713 49.4873 50.6713 49.4586C50.7195 49.4128 50.8227 49.4495 50.8801 49.4586C50.9374 49.3359 50.9936 49.2327 51.0785 49.1375C50.9936 49.0721 50.7952 48.8737 50.6908 48.8737C50.6622 48.9115 50.6335 48.9494 50.6048 48.9964C50.6243 49.0434 50.6908 49.0434 50.7379 49.0538C50.7574 49.0916 50.7574 49.1478 50.7287 49.1765C50.255 49.2419 49.9235 49.5538 49.7813 49.9966C49.8765 50.0539 49.9717 50.1193 50.0749 50.1858C50.0657 50.2145 50.0657 50.2432 50.0657 50.2707C50.0084 50.2994 50.0084 50.2994 49.7813 50.3464C49.7721 50.4038 49.7721 50.4588 49.7629 50.5162C48.4382 49.6387 47.0652 48.9964 45.5604 48.4872C45.5405 48.5263 45.5248 48.5675 45.5133 48.6099C47.0079 49.11 48.4095 49.7511 49.7159 50.6572C49.7342 50.9692 49.4888 50.8373 49.2422 50.827L49.0151 51.2239C48.7501 51.2892 48.7501 51.2892 48.6079 51.2996C48.5701 51.2709 48.5414 51.2422 48.5139 51.2239C48.4187 51.2812 48.1629 51.4028 48.1158 51.4968C48.2007 51.6299 48.2764 51.6769 48.2868 51.8272C48.1354 51.9694 48.0493 52.1197 47.8314 52.1013C47.8601 52.1954 47.8979 52.2894 47.8887 52.3846C47.6135 52.5257 47.2636 52.1013 47.1031 51.9602C46.564 50.9027 45.901 49.8739 45.2472 48.8748C45.144 48.931 45.144 48.931 45.1337 48.9494C45.768 49.9404 46.3839 50.9497 46.9608 51.9694C46.9425 52.0543 46.97 52.1013 46.97 52.1862C46.6959 52.4121 46.4504 52.1288 46.2417 52.4603H46.1568C46.1086 52.4121 46.0811 52.3651 46.0421 52.3181C45.9962 52.6106 45.7966 52.6301 45.6074 52.5073C45.7783 52.2045 46.0811 51.9407 45.7106 51.7239C45.5695 51.7239 45.3998 51.9419 45.3321 51.7331C45.2197 51.7331 45.2197 51.7331 45.2094 51.7239C45.191 51.7996 45.1635 51.865 45.0867 51.8937C45.0867 52.0921 44.8974 52.0256 44.7277 52.0348C44.7173 51.0346 44.7173 50.0344 44.7082 49.0251H44.5854C44.5763 50.0344 44.5763 51.0541 44.5659 52.0635C44.4524 52.13 44.3388 52.1862 44.2345 52.2527C44.1783 52.6576 44.1588 52.5739 43.7527 52.6771C43.7424 52.6863 43.7332 52.6954 43.7332 52.7149C43.8479 52.9409 44.0452 53.2712 43.7906 53.5259C43.5061 53.5259 43.6483 53.2334 43.7045 53.0831C43.6013 53.0166 43.4304 52.856 43.3077 52.9684C43.3455 53.0453 43.3834 53.1106 43.4212 53.1863C43.4017 53.2242 43.4017 53.2242 43.3455 53.2621C43.0898 53.1301 43.0703 53.1485 43.0703 52.8755C42.9475 53.0258 42.8913 53.2999 42.9097 53.5064C43.0129 53.5637 43.1184 53.6107 43.2217 53.6669L43.1941 53.9606C43.2125 53.9697 43.24 53.9789 43.2698 53.9984C43.2698 54.1957 43.0989 54.1211 43.0049 54.0168V53.7335C42.9005 53.7335 42.5495 54.206 42.4738 54.3092C42.3328 54.3092 42.171 54.1865 42.171 54.0351C42.2857 53.9697 42.569 53.8562 42.5977 53.8287C42.7009 53.441 42.8053 53.0544 42.9005 52.6771C42.8627 52.6576 42.8156 52.6392 42.7858 52.6197C42.569 52.7711 42.3328 53.0074 42.3328 53.2907C42.3834 53.3732 42.4126 53.4671 42.4176 53.5637C42.3419 53.6394 42.2949 53.7151 42.171 53.6956C41.8877 53.2999 41.8877 53.2999 41.7455 53.1393C41.6319 53.2334 41.5367 53.3573 41.3957 53.3756C41.2248 53.1198 43.146 50.3556 43.4304 49.9312C43.6575 49.5917 43.8938 49.2614 44.1301 48.9219C44.1209 48.884 44.036 48.8553 43.9982 48.8645C43.0141 50.2707 42.124 51.7044 41.2443 53.1772C41.1491 53.2058 41.0642 53.2058 40.969 53.2058C40.9116 53.1577 40.9415 53.1015 40.969 53.0453C40.8841 53.0349 40.3267 53.1015 40.0606 53.1106C40.0411 53.0923 40.0411 53.0923 40.0227 52.8273C39.947 52.9306 39.8713 53.0258 39.7956 53.1301C39.6626 53.1301 39.6809 53.0154 39.6809 52.903C39.5203 52.903 39.5203 52.903 39.4263 52.9225C39.3793 53.0166 39.3231 53.1106 39.2749 53.2058H39.19C39.1416 53.1036 39.0972 52.9995 39.057 52.8939C38.9996 52.9604 38.9434 53.0349 38.8964 53.1015H38.8115C38.7496 52.9656 38.7202 52.8171 38.7255 52.6679C39.0191 52.4121 39.0191 52.4041 39.0856 52.0348C38.8299 52.2894 38.5924 52.5452 38.347 52.809C38.1669 52.809 37.9593 52.6954 37.7987 52.6301C37.8171 52.8468 37.9593 53.2999 37.7127 53.4697C37.4294 53.5454 37.1449 53.6394 36.8616 53.7243C36.8421 54.0259 36.8995 54.791 36.435 54.6017C36.4258 54.6396 36.3971 54.6774 36.3879 54.7153C36.5772 54.9699 36.4545 55.1305 36.4166 55.4505C36.9087 56.4323 36.8708 56.1502 36.123 56.3853C35.9337 56.4988 35.9716 56.6869 35.858 56.8383H35.7353C35.8007 57.6114 36.1516 58.0748 36.5393 58.7343C36.5772 58.7343 36.615 58.7251 36.654 58.7251C36.6621 58.4522 36.6724 58.1872 36.6724 57.9142C36.7183 57.7915 36.9844 57.5357 37.1163 57.5357C37.1541 57.5931 37.1541 57.5931 37.192 57.6022C37.2585 57.3958 37.2206 57.1308 37.2206 56.9037C37.3434 56.8292 37.6095 56.5172 37.7414 56.6594C37.8928 56.5837 38.1577 56.6216 38.3286 56.6216C38.48 56.8097 38.6314 57.0081 38.792 57.2065C39.1613 57.2444 39.237 57.1779 39.3793 57.5174C39.4366 57.5174 39.502 57.5265 39.5593 57.5369C39.549 57.4336 39.5307 57.3384 39.5215 57.2444C39.5683 57.2185 39.6198 57.2022 39.6729 57.1962C39.6912 57.0551 39.7486 57.0838 39.9 57.0643C39.9 56.9989 39.8897 56.9037 39.9275 56.8475C41.2913 56.8762 41.2913 56.8762 41.3578 56.8946C41.3853 56.9324 41.3853 56.9324 41.4805 57.2341C41.6228 57.2822 41.8499 57.2822 41.859 57.4612C42.2662 57.3763 42.2662 57.3763 42.3328 57.3763C42.4647 57.5082 42.6069 58.1115 42.6734 58.3099C42.7399 58.2824 42.7583 58.2721 42.834 58.2721C42.967 58.4613 43.1276 58.3856 43.3352 58.4613C43.5245 58.6494 43.5531 58.7251 43.8089 58.7251C43.8663 58.7825 43.9122 58.8387 43.9695 58.9052C44.1966 58.8008 44.4524 58.6116 44.699 58.5749C45.0396 58.6403 45.3333 58.6494 45.6831 58.6494C45.6831 58.3856 45.6544 58.178 45.8632 57.9796C46.2704 58.0645 46.3644 58.0932 46.6489 58.3856C46.6867 58.3765 46.6867 58.3765 46.8473 58.2824C47.6421 58.2537 47.7282 58.4613 48.4095 57.9899C48.6848 57.9142 48.9772 57.9796 49.1952 57.7915C49.1665 57.5369 49.0529 57.2249 49.0529 56.9886C49.4785 56.6307 49.4785 56.6778 50.0371 56.6778C50.208 56.8384 50.3697 57.0173 50.5394 57.187H51.1072C51.145 57.2249 51.1737 57.2627 51.2207 57.3006C51.3343 57.1308 51.4478 56.9519 51.5614 56.781H51.6566C51.8172 57.1113 51.9491 57.5552 51.9686 57.9234C51.6658 58.2446 51.6933 58.1689 51.9112 58.5554C51.9686 58.3008 52.0064 58.3673 52.2714 58.3673C52.5363 57.7823 52.3654 57.046 52.3184 56.4036C52.167 56.1215 52.0248 55.8382 51.8734 55.564L51.5327 55.4792C51.4857 55.4035 51.5614 55.3656 51.5614 55.3002C51.5144 55.3002 51.4765 55.2911 51.4283 55.2911C51.3825 55.4035 51.3343 55.5549 51.2586 55.6489H51.1072C51.058 55.6034 51.0134 55.5531 50.9741 55.4987C50.8984 55.5078 50.7952 55.5446 50.7287 55.4987C50.7195 54.9412 50.7195 54.3941 50.7092 53.847C50.8514 53.6864 51.0028 53.5259 51.145 53.3756C51.1359 53.3091 51.1359 53.2426 51.1359 53.1772C51.2494 53.1106 51.3997 52.9592 51.5327 52.9787C51.5441 52.9304 51.5598 52.8832 51.5797 52.8377C51.2678 52.762 51.098 52.13 51.2678 51.865C51.7128 52.2711 52.1005 52.5349 52.3379 53.0728C52.6591 53.3091 52.9802 53.5545 53.3025 53.7908C56.1241 56.6021 57.9512 60.5844 58.3298 64.5289C58.3194 64.5851 58.3194 64.6321 58.3194 64.6895C56.7102 66.5763 54.9221 68.0203 52.6969 69.1432V68.9735C53.1901 68.7177 53.1901 68.7177 53.1798 68.7096C53.0192 68.7842 52.8586 68.8588 52.6877 68.9448C52.6407 66.0945 51.8734 63.3108 51.0407 60.6131C50.8893 60.207 50.8709 60.2827 51.1439 59.9524C51.2873 59.6129 51.1359 59.2528 51.5235 59.1782C51.5327 59.0176 51.5809 58.6403 51.7415 58.5749C51.5235 58.1505 51.4857 58.2159 51.8172 57.8672C51.5901 57.0643 51.5901 57.0643 51.5614 57.0184C51.4582 57.1675 51.363 57.3189 51.2586 57.4795H51.1829C51.1348 57.4238 51.0843 57.3702 51.0315 57.3189H50.4534C50.2837 57.1492 50.1231 56.9794 49.9613 56.8097H49.4601C49.2422 57.0081 49.2422 57.0081 49.1848 57.046C49.1848 57.3946 49.545 57.8947 49.0346 58.0461C49.0724 58.3294 49.0724 58.3294 49.0919 58.357C49.5266 58.2159 49.4406 58.2342 49.7629 58.5646C49.7629 58.6311 49.0151 59.3858 48.9394 59.4707C48.8362 59.4799 48.7215 59.5085 48.6182 59.528C48.6079 59.5842 48.7031 59.7253 48.7123 59.8205C48.4278 60.1313 47.813 60.745 47.3772 60.745C47.1317 60.6693 46.8955 60.6028 46.6489 60.5271C46.3736 60.5649 46.1098 60.6131 45.8345 60.6498L45.3229 60.2254C44.5568 59.9994 44.5568 60.1795 44.3859 59.4615C44.2723 59.3296 44.1588 59.2069 44.0452 59.075C43.9511 59.075 43.8468 59.1403 43.7711 59.1874C43.7045 59.5751 43.5818 59.4615 43.1838 59.4902C43.0703 59.9604 43.1184 59.8859 42.6356 59.9994C42.5874 60.6498 42.5874 60.6498 42.569 60.6876C42.2376 60.7358 41.9726 61.0088 41.6606 61.112C41.2339 61.1694 41.102 61.0558 41.0355 61.4435C41.0929 61.4997 41.1502 61.5559 41.2156 61.6132V61.8587C41.4989 62.0376 41.7833 62.2166 42.0758 62.3955C42.2754 62.6226 42.124 62.6593 41.9256 62.8681C41.9439 63.0183 42.0288 63.1697 42.0288 63.3211C41.9921 63.3395 41.9921 63.3395 41.7742 63.3303C41.7742 63.4152 41.7742 63.4152 41.8212 63.6228L42.1905 63.8487C42.9384 63.9061 43.4304 64.8971 44.254 64.4532C44.4902 64.4062 44.8504 64.5943 44.8504 64.8592C44.8125 64.8776 44.254 64.8867 44.1874 64.9051C44.2161 64.9154 44.2448 64.9154 44.2631 64.9246L44.3778 65.1792C44.5384 65.1987 44.8022 65.2079 44.9353 65.302V65.349C44.699 65.5566 44.699 65.5566 44.6898 65.5761C44.7472 65.6334 44.8412 65.6231 44.9169 65.6334C44.9353 65.6701 44.9353 65.6701 44.9743 66.0383H45.1062C45.1062 65.6713 45.0018 65.6713 45.2954 65.5107C45.4938 65.0863 45.6269 64.8489 45.9767 64.5289C45.9675 64.4715 45.7404 64.2926 45.6923 64.1894C45.7588 64.0001 45.901 64.2743 45.948 64.3305C46.1373 64.4153 46.3174 64.491 46.4975 64.5759C46.5915 64.7824 46.4218 65.1609 46.3644 65.3673C46.6294 65.3868 46.6202 65.5279 46.7532 65.7837C46.876 65.7929 47.017 65.7929 47.1409 65.8124C47.1409 65.7837 47.1501 65.7458 47.1501 65.7172C47.457 65.6092 47.7573 65.4832 48.0493 65.3398C48.2868 65.3777 48.5701 65.6323 48.7788 65.7642C48.9486 65.7183 49.1286 65.6323 49.3087 65.6323L49.3661 65.7172C49.4509 65.5291 49.7824 65.4247 49.9625 65.3306C50.0279 65.1609 50.0279 65.1609 50.0944 65.0565C50.1701 65.0565 50.1885 65.0668 50.255 65.1047C50.4064 65.0003 50.567 64.8971 50.7379 64.8019C50.9088 64.5186 51.0877 64.2456 51.2586 63.9715C51.1921 63.5184 51.4857 63.2638 51.504 62.8015H51.5235C51.6187 63.1892 51.722 63.5757 51.8172 63.9623C51.7323 64.0472 51.6841 64.2456 51.6463 64.3591C51.6749 64.405 51.7128 64.444 51.7506 64.5002L51.808 64.0093C51.9869 64.2272 52.1292 65.3306 52.1292 65.482C52.0913 65.4912 52.0535 65.5096 52.0156 65.5279C52.0156 65.6139 52.1303 66.0762 51.9686 66.1129C51.9869 66.1519 51.9972 66.1897 52.0156 66.2276C52.2049 66.2367 52.2049 66.2081 52.2427 66.3778H52.3001C52.4228 67.331 52.5077 68.2658 52.518 69.2281C52.0064 69.4735 52.0064 69.4735 51.4478 69.7178C51.5327 69.5206 51.6279 69.3508 51.808 69.2361C51.6658 69.1237 51.4949 68.9161 51.3148 69.0297C51.0223 69.454 50.3594 70.3028 49.7629 69.9817H49.7056C49.6564 70.0529 49.6094 70.1256 49.5645 70.1996C49.6023 70.2466 49.631 70.2936 49.6585 70.3407C49.1103 70.5012 48.5414 70.624 47.9931 70.765C47.9931 70.7192 47.9839 70.671 47.9839 70.6343C47.9082 70.6526 47.9082 70.6526 47.8234 70.6435C47.7947 70.6056 47.7947 70.5483 47.8234 70.5012C47.7465 70.4267 47.368 70.4072 47.2545 70.3888C46.8094 70.1434 46.5353 69.9449 46.0238 69.9071C46.4401 70.2283 46.8576 70.5494 47.274 70.8786C46.4218 70.9933 45.5787 71.077 44.7277 71.1149V65.9913C44.8309 66.02 44.9353 66.3503 44.9823 66.4535C45.4376 66.9249 45.5695 66.9444 45.5512 67.5661C45.8253 67.6051 46.0054 67.4732 46.0524 67.2174C46.2038 67.0672 46.4218 67.5007 46.4883 67.5202C46.5456 67.1234 46.2795 67.0006 46.3552 66.5763C46.5445 66.4352 46.9425 66.2092 46.9803 65.9534C46.6018 65.9351 46.6592 65.8961 46.4871 65.5382C46.4023 65.5291 46.3266 65.5291 46.2509 65.5199C46.166 65.3777 46.4023 64.8971 46.3931 64.6711C46.2509 64.6138 46.2509 64.6138 46.1373 64.5851C46.0054 64.6986 45.862 64.8214 45.7301 64.9441C45.5982 65.2274 45.5122 65.5474 45.2381 65.708C45.2289 65.8491 45.2289 65.9913 45.2289 66.1324C44.9444 66.4249 44.8217 65.9443 44.8125 65.7745C44.6795 65.7745 44.5281 65.6713 44.5281 65.5291C44.5854 65.4717 44.6428 65.4258 44.6887 65.3685C44.3388 65.3111 44.2918 65.3593 44.1691 65.0473C44.1127 65.0365 44.0556 65.0303 43.9982 65.029C43.9982 65.1322 43.9798 65.2354 43.9316 65.3306C43.989 65.6415 44.0555 65.9443 44.1117 66.2551L44.3492 66.2276C44.395 66.1324 44.4524 66.0383 44.5006 65.9523C44.5281 65.9523 44.5579 65.9443 44.5854 65.9443C44.5854 67.6613 44.5946 69.3887 44.6038 71.1149C41.5471 71.0862 38.6601 70.5116 35.8867 69.1811C35.9245 67.6992 36.2365 66.2367 36.568 64.7927C36.6712 64.7262 36.7859 64.6608 36.8995 64.5943C36.6621 64.2169 36.7481 64.1045 36.8513 63.6606C37.0222 63.6606 37.4386 63.9909 37.5991 64.085C37.8744 63.7455 37.723 63.9336 38.0545 63.9336C37.9685 63.7363 37.8079 63.1789 37.6278 63.0757C37.6278 62.9334 37.8262 62.7924 37.9123 62.6972C37.5796 62.3485 37.7035 62.3209 37.8641 61.8484C38.0442 61.6981 38.0442 61.6981 38.2529 61.5559C38.1577 60.7163 37.2963 60.1875 37.0222 59.4145C36.6621 59.1874 36.1413 59.3766 35.811 59.075C35.5839 59.3858 35.6114 59.4994 35.6114 59.8859C35.5265 59.9994 35.4508 60.1038 35.3751 60.2162C35.3946 60.6314 35.4222 61.0558 35.4508 61.4802C35.6779 61.8105 35.6779 62.0376 35.7261 62.462C35.8202 62.6226 35.9142 62.7832 36.0094 62.9334C36.4728 63.0848 36.7286 63.0183 36.7286 63.5666L36.5864 64.0758H36.56C36.487 63.9679 36.4174 63.8577 36.3512 63.7455C36.2939 63.8028 36.248 63.8682 36.1998 63.9244C36.2572 64.3488 36.2572 64.2548 35.9245 64.6229C35.8397 64.6321 35.8397 64.6321 35.3671 64.5656L35.4245 65.1895C35.6699 65.2744 35.9062 65.3123 36.0954 65.0943C36.1711 65.0943 36.2468 65.1047 36.3329 65.1047C36.0576 66.4443 35.8213 67.7278 35.7456 69.0859C34.6277 68.5293 33.5684 67.8622 32.5834 67.0947L32.8013 67.0672C32.7256 66.7277 32.6499 66.387 32.565 66.0475C32.2898 65.6323 31.8929 65.2641 31.5522 64.9062C31.5993 65.2171 31.6841 65.2171 31.449 65.388C31.3343 65.9064 32.073 66.699 32.3379 67.1325C32.3758 67.1429 32.4044 67.1429 32.4412 67.152C33.4643 67.963 34.5814 68.6328 35.7364 69.2464C35.7364 70.5391 35.8775 71.8226 36.6827 72.8319C32.8862 70.7754 29.9614 67.1234 28.835 62.7637H28.8339ZM51.2207 73.3228C51.363 73.1909 51.5327 73.0682 51.6371 72.9558C53.0662 72.1059 54.2866 71.3133 55.5082 70.1996C55.8488 69.813 56.7481 69.087 56.8995 68.6236C56.8433 68.5663 56.9385 68.4447 56.8995 68.3977C56.7584 68.4917 56.7767 68.3598 56.7584 68.2658C56.4648 68.7934 56.1046 69.8027 55.3292 69.8027C55.2432 69.6811 55.452 69.5389 55.452 69.4254C55.2914 69.5206 55.1388 69.6238 54.9874 69.7178C54.9599 69.9071 54.6089 70.1239 54.4575 70.2374C54.3061 70.5299 54.0217 71.0208 53.7005 70.8316C53.1328 71.1149 52.6407 71.7193 52.1865 72.1437C52.1865 72.021 52.3758 71.6436 52.4228 71.5117C52.5455 71.0873 52.612 70.039 52.877 69.7935C52.7348 69.6616 52.7451 69.5297 52.7829 69.3405C53.583 68.9214 54.363 68.4651 55.1205 67.9733C55.0735 68.0387 55.0735 68.0387 55.0826 68.0478C55.3189 67.9354 55.3189 67.9354 55.3946 67.8873C55.3854 67.8689 55.3763 67.8597 55.3763 67.8414C55.2811 67.8873 55.2811 67.8873 55.2432 67.8873C56.4056 67.0294 57.4665 66.042 58.4055 64.9441C58.4146 64.9441 58.4238 64.9338 58.433 64.9338C58.4238 65.6518 58.3768 66.387 58.1875 67.0763C56.53 69.7983 54.1067 71.971 51.2207 73.3228ZM44.8034 74.8231C44.9353 74.3608 44.8125 71.6528 44.8125 71.2846C45.7301 71.2376 46.6294 71.1619 47.5389 71.0392C47.8887 71.3133 48.2294 71.5106 48.6836 71.4177C48.7031 71.2938 48.7215 71.1814 48.7306 71.0587C48.5896 71.0013 48.4382 70.9554 48.2948 70.9073V70.8786C48.7972 70.7754 49.2995 70.6435 49.7916 70.5116C49.8765 70.5116 49.8948 70.5769 49.943 70.6435C50.8984 70.4255 50.8984 70.4255 50.965 70.4255C51.1634 70.5299 51.3813 70.1709 51.3813 69.992C51.4387 69.8784 52.1292 69.6525 52.2806 69.5859C52.12 70.0207 52.2714 69.8601 52.3001 70.2179C52.3092 70.2088 52.3184 70.2088 52.3276 70.1996C52.3276 69.9358 52.3379 69.8876 52.4606 69.672H52.5753C52.6407 69.8027 52.5363 70.3602 52.518 70.4921C52.3941 71.077 52.2519 71.8134 51.8929 72.294C51.3997 72.5486 50.9088 72.8044 50.4156 73.0487C50.2458 73.2379 50.3123 73.1817 50.2928 73.3698C50.2634 73.3892 50.2319 73.4049 50.1988 73.4169C50.6048 73.6153 51.098 72.9833 51.3251 73.0957C51.1698 73.2417 51.005 73.3773 50.8319 73.5018C48.9772 74.3046 46.9425 74.7761 44.8034 74.8231ZM37.1163 73.0774C36.2274 72.1059 35.8385 70.6802 35.9716 69.3692C38.4227 70.4359 40.7132 71.0392 43.3926 71.2663C43.8181 71.2663 44.2448 71.2755 44.6795 71.2846C44.6795 71.6631 44.5568 74.37 44.7277 74.8231H44.4237C41.8835 74.8354 39.3765 74.2367 37.1163 73.0774Z" fill="#94A3B8"/>
<path fill-rule="evenodd" clip-rule="evenodd" d="M87.9414 37.1362V54.513H95.8785L100.376 44.782H100.479V54.5119H107.275V37.1374H99.3287L94.8405 47.0679H94.7373V37.1362H87.9414ZM120.44 43.1476H115.892V37.1374H109.096V54.5142H115.892V48.1094H120.44V54.513H127.236V37.1374H120.44V43.1476ZM128.72 37.1362V42.2724H134.707V54.5119H141.503V42.2724H147.491V37.1362H128.72ZM148.997 37.1362V54.513H164.676V50.4183H155.792V47.7091H164.114V43.7405H155.792V41.2298H164.497V37.1374L148.997 37.1362ZM172.658 41.1552H174.13C175.391 41.1805 176.243 41.4133 176.677 41.8549C177.111 42.2976 177.316 42.7805 177.281 43.315C177.256 44.0066 177.044 44.5079 176.652 44.8153C176.271 45.1196 175.814 45.3154 175.331 45.3819C174.943 45.4472 174.55 45.4779 174.156 45.4736H172.658V41.1552ZM166.04 37.1362V54.513H172.836V49.4927H176.567C178.397 49.4674 179.871 49.1428 180.986 48.5258C182.094 47.9007 182.903 47.1253 183.397 46.1917C183.891 45.2569 184.138 44.3152 184.129 43.3643C184.138 42.3018 183.862 41.2563 183.328 40.3374C182.792 39.3958 181.949 38.6284 180.816 38.0446C179.683 37.4528 178.227 37.1534 176.447 37.1362H166.04ZM196.973 41.1541H198.445C199.706 41.1793 200.558 41.4133 200.993 41.8538C201.426 42.2965 201.631 42.7805 201.597 43.3219C201.571 44.0147 201.367 44.5148 200.966 44.8233C200.584 45.1271 200.129 45.3252 199.646 45.3979C199.258 45.4632 198.865 45.4939 198.472 45.4897H196.973V41.1541ZM190.355 37.1351V54.5119H197.152V49.4927H200.882C202.712 49.4674 204.186 49.1417 205.302 48.5177C206.409 47.8915 207.218 47.1161 207.712 46.1825C208.206 45.2488 208.453 44.306 208.445 43.3552C208.45 42.2923 208.171 41.2474 207.635 40.3294C207.098 39.3866 206.264 38.6204 205.123 38.0354C203.99 37.4436 202.533 37.1442 200.754 37.127H190.355V37.1351ZM216.755 41.255L218.603 46.6998H214.822L216.645 41.255H216.755ZM212.259 37.1362L206.041 54.5211H212.837L214.029 50.7693H219.361L220.579 54.5199H227.733L221.414 37.1374L212.259 37.1362ZM236.677 41.005C237.52 41.0302 238.133 41.3135 238.526 41.8549C238.917 42.3894 239.163 43.0306 239.275 43.7727C239.386 44.5148 239.428 45.1995 239.419 45.8326C239.436 46.4658 239.386 47.1505 239.275 47.8926C239.163 48.6347 238.917 49.2679 238.526 49.8104C238.133 50.3518 237.512 50.6362 236.677 50.6592C235.834 50.6362 235.221 50.3518 234.829 49.8104C234.437 49.2759 234.19 48.6347 234.08 47.8926C233.98 47.2106 233.931 46.522 233.934 45.8326C233.923 45.1431 233.972 44.4538 234.08 43.7727C234.19 43.0306 234.437 42.3974 234.829 41.8549C235.221 41.3135 235.834 41.0291 236.677 41.005ZM236.677 36.8357C233.526 36.8609 231.09 37.6696 229.378 39.2535C227.666 40.8387 226.806 43.0306 226.781 45.8246C226.798 48.6256 227.666 50.8106 229.378 52.3945C231.09 53.9785 233.518 54.7872 236.677 54.8124C239.837 54.7872 242.264 53.9785 243.976 52.3945C245.687 50.8106 246.548 48.6175 246.573 45.8246C246.548 43.0225 245.687 40.8387 243.976 39.2535C242.264 37.6707 239.829 36.8609 236.677 36.8357Z" fill="#94A3B8"/>
<path d="M87.9414 61.4939H245.965V63.3623H87.9414V61.4939Z" fill="#94A3B8"/>
</svg>
