<svg xmlns="http://www.w3.org/2000/svg" width="94" height="40" viewBox="0 0 94 40" fill="none">
<path fill-rule="evenodd" clip-rule="evenodd" d="M71.9831 16.7957C73.0508 17.696 74.4089 18.1461 76.0572 18.1461C77.1249 18.1461 77.9679 18.0523 78.586 17.8648V14.0949C78.1927 14.2637 77.6775 14.3481 77.0407 14.3481C76.1977 14.3481 75.5889 14.1605 75.2143 13.7854C74.8397 13.4103 74.6524 12.8007 74.6524 11.9567V7.59604H78.586V3.91055H74.6524V0H70.4096V3.91055H67.5999V7.59604H70.4096V12.8289C70.4096 14.5544 70.9341 15.8767 71.9831 16.7957ZM6.54673 18.2868C4.67356 18.2868 3.1282 17.8272 1.91063 16.9082C0.711805 15.9704 0.0749268 14.7982 0 13.3915H4.46751C4.50498 13.9355 4.72976 14.3575 5.14185 14.6575C5.55395 14.9389 6.06907 15.0795 6.68722 15.0795C7.7362 15.0795 8.26068 14.7795 8.26068 14.1793C8.26068 13.8792 8.13893 13.6541 7.89541 13.5041C7.67063 13.3353 7.25854 13.1665 6.65912 12.9977L3.82127 12.2662C1.46107 11.6473 0.280976 10.1749 0.280976 7.84924C0.280976 6.59261 0.805463 5.57043 1.85444 4.78269C2.90341 3.99495 4.33639 3.60109 6.15337 3.60109C7.76429 3.60109 9.10361 4.00433 10.1713 4.81083C11.2578 5.59856 11.8572 6.71452 11.9696 8.15871H7.69873C7.53015 7.29595 6.98693 6.86457 6.06907 6.86457C5.11376 6.86457 4.6361 7.16466 4.6361 7.76484C4.6361 8.29 5.11376 8.65574 6.06907 8.86205L8.62595 9.53725C10.0308 9.91236 11.0423 10.4563 11.6605 11.169C12.2786 11.8817 12.5877 12.8101 12.5877 13.9542C12.5877 15.2483 12.0258 16.2987 10.9019 17.1052C9.77795 17.8929 8.32624 18.2868 6.54673 18.2868ZM32.7833 16.1594V10.6907C32.7833 8.53382 32.1089 7.45537 30.7602 7.45537C29.1493 7.45537 28.3064 8.6276 28.2315 10.9721V17.9773H23.9887V10.6907C23.9887 8.53382 23.3144 7.45537 21.9657 7.45537C21.179 7.45537 20.5608 7.76484 20.1113 8.38378C19.6617 8.98396 19.4369 9.90298 19.4369 11.1409V17.9773H15.1942V3.91055H19.4369V5.34536C20.336 4.18251 21.5349 3.60109 23.0334 3.60109C25.0002 3.60109 26.4426 4.42633 27.3604 6.07683C27.7725 5.27034 28.3907 4.66078 29.2149 4.24816C30.0391 3.81678 30.8633 3.60109 31.6875 3.60109C33.392 3.60109 34.7033 4.16376 35.6211 5.28909C36.5577 6.41443 37.026 7.97115 37.026 9.95925V16.1594H37.029V20.0672H40.1338V23.7502L37.029 23.722V28.0797C37.029 28.9231 37.1101 29.8957 37.4634 30.2705C37.6589 30.4779 37.8391 30.4779 38.6342 30.4779C39.145 30.4779 39.6031 30.2586 39.957 30.0893C40.0192 30.0595 40.0783 30.0312 40.1338 30.006V34.0117C39.5508 34.1992 38.7557 34.2929 37.7487 34.2929C36.194 34.2929 34.9132 33.8431 33.9062 32.9434C32.9168 32.025 32.4221 30.7037 32.4221 28.9794V23.7502H29.7721V20.0672H32.7805V16.1594H32.7833ZM41.368 16.1205C42.6417 17.5647 44.1871 18.2868 46.004 18.2868C47.615 18.2868 48.8887 17.7147 49.8253 16.5706V17.9773H54.068V3.91055H49.8253V5.31723C48.8887 4.17313 47.615 3.60109 46.004 3.60109C44.1871 3.60109 42.6417 4.32318 41.368 5.76736C40.1129 7.21155 39.4854 8.93707 39.4854 10.9439C39.4854 12.9508 40.1129 14.6763 41.368 16.1205ZM46.9594 14.4325C46.004 14.4325 45.2267 14.1043 44.6273 13.4478C44.0466 12.7914 43.7562 11.9567 43.7562 10.9439C43.7562 9.93112 44.0466 9.09649 44.6273 8.44004C45.2267 7.7836 46.004 7.45537 46.9594 7.45537C47.9147 7.45537 48.6827 7.7836 49.2634 8.44004C49.8628 9.09649 50.1625 9.93112 50.1625 10.9439C50.1625 11.9567 49.8628 12.7914 49.2634 13.4478C48.6827 14.1043 47.9147 14.4325 46.9594 14.4325ZM57.56 3.91055H61.8028V6.02057C62.0276 5.38287 62.449 4.84834 63.0672 4.41696C63.6853 3.96682 64.3784 3.74175 65.1464 3.74175C65.6334 3.74175 66.0923 3.79802 66.5232 3.91055V8.21498C65.8676 7.98991 65.24 7.87737 64.6406 7.87737C63.7415 7.87737 63.0391 8.19622 62.5333 8.83391C62.0463 9.45285 61.8028 10.2781 61.8028 11.3097V15.3832H61.8033L61.8028 15.6197V17.9773H61.7974L61.7607 34.1242H57.5762V17.9773H57.56V3.91055ZM83.8799 27.8548L88.809 34.1242H93.6585L87.6164 26.421L92.4925 20.0672H87.7489L83.8799 25.0996V10.6943H79.8783V34.1242H83.8799V27.8548ZM4.00159 40H1.44708e-05V20.0672H4.00159V21.4729C4.28426 21.0231 4.75244 20.6295 5.40611 20.2921C6.05979 19.936 6.79297 19.758 7.60566 19.758C9.31935 19.758 10.768 20.4796 11.9517 21.9228C13.1531 23.3659 13.7538 25.0903 13.7538 27.0957C13.7538 29.1012 13.1531 30.8255 11.9517 32.2687C10.768 33.7119 9.31935 34.4335 7.60566 34.4335C6.79297 34.4335 6.05979 34.2648 5.40611 33.9274C4.75244 33.5713 4.28426 33.1683 4.00159 32.7185V40ZM4.5051 29.5979C5.07044 30.2538 5.80362 30.5818 6.70464 30.5818C7.60566 30.5818 8.33 30.2538 8.87768 29.5979C9.44302 28.9419 9.7257 28.1078 9.7257 27.0957C9.7257 26.0836 9.44302 25.2496 8.87768 24.5936C8.33 23.9376 7.60566 23.6096 6.70464 23.6096C5.80362 23.6096 5.07044 23.9376 4.5051 24.5936C3.95742 25.2496 3.68358 26.0836 3.68358 27.0957C3.68358 28.1078 3.95742 28.9419 4.5051 29.5979ZM27.0645 32.3249C25.7041 33.7306 24.0611 34.4335 22.1354 34.4335C20.2097 34.4335 18.5666 33.7306 17.2063 32.3249C15.8459 30.9005 15.1657 29.1574 15.1657 27.0957C15.1657 25.034 15.8459 23.3003 17.2063 21.8946C18.5666 20.4702 20.2097 19.758 22.1354 19.758C24.0611 19.758 25.7041 20.4702 27.0645 21.8946C28.4248 23.3003 29.105 25.034 29.105 27.0957C29.105 29.1574 28.4248 30.9005 27.0645 32.3249ZM20.0153 29.5416C20.5807 30.1601 21.2874 30.4694 22.1354 30.4694C22.9834 30.4694 23.6812 30.1601 24.2289 29.5416C24.7943 28.9231 25.0769 28.1078 25.0769 27.0957C25.0769 26.0836 24.7943 25.2683 24.2289 24.6498C23.6812 24.0313 22.9834 23.722 22.1354 23.722C21.2874 23.722 20.5807 24.0313 20.0153 24.6498C19.4677 25.2683 19.1938 26.0836 19.1938 27.0957C19.1938 28.1078 19.4677 28.9231 20.0153 29.5416ZM53.2937 32.3249C51.9334 33.7306 50.2904 34.4335 48.3647 34.4335C46.4389 34.4335 44.7959 33.7306 43.4356 32.3249C42.0752 30.9005 41.395 29.1574 41.395 27.0957C41.395 25.034 42.0752 23.3003 43.4356 21.8946C44.7959 20.4702 46.4389 19.758 48.3647 19.758C50.2904 19.758 51.9334 20.4702 53.2937 21.8946C54.6541 23.3003 55.3343 25.034 55.3343 27.0957C55.3343 29.1574 54.6541 30.9005 53.2937 32.3249ZM46.2446 29.5416C46.81 30.1601 47.5166 30.4694 48.3647 30.4694C49.2127 30.4694 49.9105 30.1601 50.4582 29.5416C51.0235 28.9231 51.3062 28.1078 51.3062 27.0957C51.3062 26.0836 51.0235 25.2683 50.4582 24.6498C49.9105 24.0313 49.2127 23.722 48.3647 23.722C47.5166 23.722 46.81 24.0313 46.2446 24.6498C45.6969 25.2683 45.4231 26.0836 45.4231 27.0957C45.4231 28.1078 45.6969 28.9231 46.2446 29.5416ZM75.6411 32.3249C74.2808 33.7306 72.6377 34.4335 70.712 34.4335C68.7863 34.4335 67.1433 33.7306 65.7829 32.3249C64.4226 30.9005 63.7424 29.1574 63.7424 27.0957C63.7424 25.034 64.4226 23.3003 65.7829 21.8946C67.1433 20.4702 68.7863 19.758 70.712 19.758C72.6377 19.758 74.2808 20.4702 75.6411 21.8946C77.0015 23.3003 77.6816 25.034 77.6816 27.0957C77.6816 29.1574 77.0015 30.9005 75.6411 32.3249ZM68.592 29.5416C69.1573 30.1601 69.864 30.4694 70.712 30.4694C71.56 30.4694 72.2579 30.1601 72.8056 29.5416C73.3709 28.9231 73.6536 28.1078 73.6536 27.0957C73.6536 26.0836 73.3709 25.2683 72.8056 24.6498C72.2579 24.0313 71.56 23.722 70.712 23.722C69.864 23.722 69.1573 24.0313 68.592 24.6498C68.0443 25.2683 67.7705 26.0836 67.7705 27.0957C67.7705 28.1078 68.0443 28.9231 68.592 29.5416Z" fill="url(#paint0_angular_601_18119)"/>
<defs fill="#ffffff">
<radialGradient id="paint0_angular_601_18119" cx="0" cy="0" r="1" gradientUnits="userSpaceOnUse" gradientTransform="translate(87.0246 34.0454) rotate(157.901) scale(99.4022 200.546)" fill="#ffffff">
<stop stop-color="#ffffff" fill="#ffffff"/>
<stop offset="1" stop-color="#ffffff" fill="#ffffff"/>
</radialGradient>
</defs>
</svg>