<svg width="48" height="49" viewBox="0 0 48 49" fill="none" xmlns="http://www.w3.org/2000/svg">
<path d="M27.4114 24.2923C27.4114 29.3755 23.3961 33.4963 18.443 33.4963C13.4899 33.4963 9.47461 29.3755 9.47461 24.2923C9.47461 19.2091 13.4899 15.0883 18.443 15.0883C23.3961 15.0883 27.4114 19.2091 27.4114 24.2923Z" fill="#ED0006"/>
<path d="M39.0461 24.2923C39.0461 29.3755 35.0309 33.4963 30.0778 33.4963C25.1247 33.4963 21.1094 29.3755 21.1094 24.2923C21.1094 19.2091 25.1247 15.0883 30.0778 15.0883C35.0309 15.0883 39.0461 19.2091 39.0461 24.2923Z" fill="#0099DF"/>
<path fill-rule="evenodd" clip-rule="evenodd" d="M24.2604 31.2975C26.1887 29.6093 27.4114 27.0973 27.4114 24.2922C27.4114 21.4872 26.1887 18.9752 24.2604 17.287C22.3321 18.9752 21.1094 21.4872 21.1094 24.2922C21.1094 27.0973 22.3321 29.6093 24.2604 31.2975Z" fill="#6C6BBD"/>
</svg>
