<svg width="48" height="49" viewBox="0 0 48 49" fill="none" xmlns="http://www.w3.org/2000/svg">
<path fill-rule="evenodd" clip-rule="evenodd" d="M23.7858 31.3323C22.2197 32.7033 20.1882 33.531 17.9684 33.531C13.0153 33.531 9 29.4102 9 24.327C9 19.2438 13.0153 15.123 17.9684 15.123C20.1882 15.123 22.2197 15.9507 23.7858 17.3218C25.3518 15.9507 27.3833 15.123 29.6031 15.123C34.5563 15.123 38.5715 19.2438 38.5715 24.327C38.5715 29.4102 34.5563 33.531 29.6031 33.531C27.3833 33.531 25.3518 32.7033 23.7858 31.3323Z" fill="#ED0006"/>
<path fill-rule="evenodd" clip-rule="evenodd" d="M23.7852 31.3322C25.7134 29.644 26.9361 27.1321 26.9361 24.327C26.9361 21.522 25.7134 19.01 23.7852 17.3218C25.3512 15.9507 27.3827 15.123 29.6026 15.123C34.5557 15.123 38.571 19.2438 38.571 24.327C38.571 29.4102 34.5557 33.531 29.6026 33.531C27.3827 33.531 25.3512 32.7033 23.7852 31.3322Z" fill="#F9A000"/>
<path fill-rule="evenodd" clip-rule="evenodd" d="M23.7858 17.3217C25.7141 19.0099 26.9368 21.5219 26.9368 24.3269C26.9368 27.132 25.7141 29.644 23.7858 31.3322C21.8575 29.644 20.6348 27.132 20.6348 24.3269C20.6348 21.5219 21.8575 19.0099 23.7858 17.3217Z" fill="#FF5E00"/>
</svg>
