<svg width="48" height="49" viewBox="0 0 48 49" fill="none" xmlns="http://www.w3.org/2000/svg">
<path fill-rule="evenodd" clip-rule="evenodd" d="M16.0503 29.4674H13.2636L11.1739 21.3795C11.0748 21.0075 10.8642 20.6786 10.5544 20.5236C9.78127 20.134 8.92936 19.824 8 19.6676V19.3562H12.4892C13.1087 19.3562 13.5734 19.824 13.6509 20.3672L14.7351 26.2012L17.5205 19.3562H20.2297L16.0503 29.4674ZM21.7788 29.4673H19.147L21.3141 19.3562H23.9459L21.7788 29.4673ZM27.3506 22.1573C27.428 21.6128 27.8927 21.3014 28.4348 21.3014C29.2867 21.2232 30.2147 21.3796 30.9892 21.7678L31.4538 19.5908C30.6794 19.2794 29.8275 19.123 29.0544 19.123C26.5 19.123 24.6413 20.5236 24.6413 22.4674C24.6413 23.9461 25.9579 24.7225 26.8872 25.1903C27.8927 25.6567 28.2799 25.968 28.2025 26.4344C28.2025 27.134 27.428 27.4454 26.6549 27.4454C25.7255 27.4454 24.7962 27.2122 23.9456 26.8227L23.481 29.001C24.4103 29.3892 25.4158 29.5456 26.3451 29.5456C29.2093 29.6224 30.9892 28.2232 30.9892 26.1231C30.9892 23.4783 27.3506 23.3233 27.3506 22.1573ZM40.2002 29.4673L38.1105 19.3562H35.866C35.4013 19.3562 34.9366 19.6676 34.7817 20.134L30.9121 29.4673H33.6214L34.1621 27.99H37.491L37.8008 29.4673H40.2002ZM36.253 22.0792L37.0261 25.8899H34.8589L36.253 22.0792Z" fill="#172B85"/>
</svg>
