<svg width="209" height="48" viewBox="0 0 209 48" fill="none" xmlns="http://www.w3.org/2000/svg">
<path d="M27.1843 1.83823H1.21202C1.01617 1.84849 0.850382 1.92869 0.717916 2.08164C0.58545 2.23366 0.470863 2.42859 0.506621 2.64869L1.36074 7.94047C1.39569 8.16057 1.43957 8.35456 1.57122 8.50751C1.7045 8.65953 1.86948 8.74906 2.06614 8.74906H10.8097V37.7988C10.8178 38.0236 10.8877 38.212 11.0226 38.3659C11.1551 38.5188 11.3209 38.6 11.5167 38.6084H16.8812C17.077 38.6 17.2412 38.5188 17.3745 38.3659C17.5078 38.2129 17.5785 38.0236 17.5874 37.7988V8.74906H26.3302C26.5504 8.74906 26.7227 8.65953 26.8633 8.50751C27.0047 8.35456 27.0469 8.16057 27.0827 7.93953L27.9368 2.64775C27.9726 2.42672 27.8588 2.23273 27.7174 2.08071C27.5776 1.92869 27.4037 1.84849 27.1843 1.83823ZM59.8253 32.5611C59.7871 32.3214 59.7465 32.12 59.6059 31.9764C59.4645 31.8337 59.2906 31.7516 59.0728 31.7516H43.2712V23.5976H57.4799C57.6766 23.5892 57.84 23.508 57.9741 23.3448C58.1073 23.1844 58.178 22.9858 58.1854 22.7339V17.4963C58.178 17.2715 58.1073 17.0812 57.9741 16.9292C57.8408 16.7772 57.6766 16.6951 57.4799 16.6867H43.2712V8.74906H59.0728C59.2922 8.74906 59.4653 8.65953 59.6059 8.50751C59.7457 8.35456 59.7896 8.16057 59.8253 7.93953L60.6795 2.64775C60.7144 2.42672 60.6006 2.23273 60.46 2.08071C60.3186 1.92869 60.1455 1.84755 59.9253 1.83823H37.2476C37.0282 1.84755 36.8551 1.92776 36.7153 2.08071C36.5731 2.23366 36.5024 2.42299 36.4951 2.64775V37.7988C36.5024 38.0236 36.5731 38.212 36.7153 38.3659C36.8551 38.5188 37.0282 38.6 37.2476 38.6084H59.9261C60.1463 38.6 60.3194 38.5188 60.4608 38.3659C60.6006 38.2148 60.716 38.0208 60.6803 37.7988L59.8253 32.5611ZM84.5558 30.5597C83.1125 30.5504 81.787 30.2538 80.5721 29.6774C79.3628 29.102 78.3129 28.2925 77.4197 27.2479C76.5177 26.2024 75.8277 24.9695 75.3328 23.5677C74.8387 22.1529 74.5876 20.615 74.5802 18.9512C74.5876 17.2948 74.8387 15.756 75.3328 14.3514C75.8277 12.9394 76.5168 11.7065 77.4197 10.6442C78.3137 9.59123 79.3636 8.77238 80.5721 8.17922C81.787 7.59446 83.1125 7.29601 84.5558 7.28762C85.9983 7.29601 87.3238 7.59446 88.5314 8.17922C89.7382 8.77238 90.7809 9.59123 91.6757 10.6442C92.5623 11.7065 93.2522 12.9394 93.7382 14.3514C94.2323 15.756 94.4761 17.2948 94.4834 18.9512C94.4761 20.615 94.2323 22.1538 93.7382 23.5677C93.2531 24.9704 92.5623 26.2034 91.6757 27.2479C90.7809 28.2915 89.7382 29.102 88.5314 29.6774C87.3238 30.2547 85.9983 30.5504 84.5558 30.5597ZM102.482 41.1964C101.784 41.0882 101.008 40.9269 100.137 40.7292C99.2668 40.5221 98.3566 40.2964 97.4091 40.0362C96.4599 39.7844 95.5269 39.5149 94.5931 39.2351C93.6602 38.9562 92.789 38.6764 91.9666 38.4153C91.1499 38.1467 90.4371 37.9023 89.8252 37.6878C89.6602 37.6328 89.5351 37.5517 89.4408 37.4454C89.3555 37.3372 89.3083 37.201 89.3083 37.0397C91.0726 36.537 92.7037 35.7442 94.2014 34.6642C95.7 33.5936 97.0084 32.2711 98.1226 30.7052C99.2441 29.1384 100.114 27.3654 100.733 25.3957C101.36 23.4148 101.674 21.265 101.682 18.9521C101.674 16.7017 101.377 14.6051 100.788 12.6708C100.2 10.7263 99.3757 8.98129 98.3095 7.42472C97.2514 5.87654 95.9966 4.5438 94.5696 3.4377C93.1352 2.33066 91.5741 1.48476 89.8805 0.890668C88.186 0.305905 86.4063 0.00839373 84.5558 0C82.698 0.00746109 80.9093 0.304039 79.2076 0.889735C77.5059 1.48382 75.9447 2.32973 74.5103 3.43676C73.076 4.5438 71.8204 5.87561 70.7623 7.42379C69.6953 8.98036 68.8647 10.7253 68.2763 12.6699C67.6871 14.6051 67.3897 16.7017 67.3816 18.9512C67.3897 21.2809 67.7197 23.4418 68.3543 25.4386C68.9972 27.4372 69.8838 29.2186 71.0362 30.8022C72.1804 32.3774 73.5221 33.7083 75.0662 34.7892C76.6038 35.8673 78.273 36.6517 80.0845 37.146L79.9666 37.4966C79.8171 37.9462 79.3734 38.1085 79.1873 38.1346L75.4912 38.6662C75.3856 38.6811 75.2702 38.6513 75.2084 38.8732C74.9858 39.6604 74.9045 42.7884 74.9882 43.985C75.0191 44.4345 75.1337 44.4495 75.297 44.4578C78.3275 44.622 84.6574 42.8696 93.8715 46.4425C95.0954 46.9163 96.1852 47.2977 97.1417 47.5766C98.0982 47.8554 98.8743 47.9916 99.4708 48C99.8625 47.9916 100.129 47.9095 100.286 47.7659C100.435 47.6223 100.546 47.4675 100.6 47.2987L103.047 42.2764C103.188 41.9798 103.203 41.7364 103.101 41.5564C102.999 41.368 102.787 41.2505 102.482 41.1964ZM130.618 1.83823H104.647C104.45 1.84755 104.285 1.92869 104.152 2.08071C104.019 2.23366 103.906 2.42765 103.941 2.64869L104.795 7.93953C104.83 8.16057 104.873 8.35456 105.008 8.50751C105.139 8.65953 105.305 8.74906 105.501 8.74906H114.245V37.7988C114.253 38.0236 114.323 38.2138 114.457 38.3659C114.59 38.5207 114.755 38.6 114.951 38.6084H120.314C120.511 38.6 120.674 38.5197 120.809 38.3659C120.942 38.2138 121.012 38.0236 121.02 37.7988V8.74906H129.764C129.983 8.74906 130.157 8.65953 130.297 8.50751C130.439 8.35456 130.482 8.16057 130.517 7.93953L131.371 2.64869C131.406 2.42579 131.292 2.23366 131.151 2.08071C131.011 1.92869 130.838 1.84849 130.618 1.83823ZM166.13 1.83823H160.813C160.602 1.84755 160.421 1.92869 160.281 2.08071C160.139 2.23366 160.068 2.42299 160.061 2.64869V23.1658C160.061 25.9198 159.543 28.0267 158.508 29.4844C157.848 30.3937 157.049 31.0503 156.116 31.4457C155.176 31.8421 154.109 32.0295 152.909 32.0211C151.757 32.0295 150.714 31.8421 149.788 31.4457C148.863 31.0493 148.063 30.3928 147.405 29.4844C146.864 28.7541 146.464 27.8653 146.197 26.8114C145.94 25.7576 145.805 24.5433 145.805 23.1667V2.64962C145.797 2.42392 145.727 2.2346 145.594 2.08164C145.459 1.92962 145.296 1.84849 145.099 1.83916H139.736C139.54 1.84849 139.375 1.92962 139.241 2.08164C139.108 2.2346 139.038 2.42392 139.03 2.64962V24.0844C139.03 26.1726 139.289 28.0621 139.792 29.7726C140.293 31.4737 141.029 32.9668 141.994 34.2371C143.18 35.8123 144.692 37.0182 146.535 37.8641C148.378 38.7091 150.503 39.1418 152.91 39.1511C155.341 39.1418 157.481 38.71 159.332 37.8641C161.183 37.0191 162.712 35.8123 163.92 34.2371C164.885 32.9678 165.614 31.4746 166.1 29.7726C166.594 28.0621 166.837 26.1726 166.837 24.0844V2.64962C166.837 2.42392 166.766 2.2346 166.641 2.08164C166.514 1.92869 166.341 1.84849 166.13 1.83823ZM208.28 2.08258C208.138 1.93056 207.965 1.84849 207.747 1.84009H202.336C202.061 1.83077 201.817 1.87553 201.614 1.98465C201.41 2.10123 201.231 2.33532 201.065 2.70465L191.891 20.9004L182.763 2.70465C182.573 2.33532 182.379 2.10123 182.173 1.98465C181.963 1.87553 181.719 1.82983 181.445 1.84009H176.081C175.861 1.84849 175.688 1.93056 175.548 2.08258C175.406 2.2346 175.336 2.42485 175.328 2.64962V37.8016C175.336 38.0264 175.406 38.2148 175.548 38.3687C175.689 38.5207 175.862 38.6028 176.081 38.6111H181.162C181.383 38.6028 181.555 38.5207 181.697 38.3687C181.837 38.2157 181.908 38.0264 181.916 37.8016V15.3391L188.928 28.9994C189.06 29.296 189.218 29.5133 189.389 29.6569C189.555 29.7921 189.782 29.8639 190.056 29.8639H193.96C194.259 29.8639 194.486 29.7912 194.651 29.6569C194.808 29.5133 194.957 29.296 195.091 28.9994L201.913 15.3391V37.8016C201.921 38.0264 201.991 38.2148 202.132 38.3687C202.274 38.5207 202.454 38.6028 202.667 38.6111H207.747C207.967 38.6028 208.14 38.5207 208.281 38.3687C208.422 38.2157 208.492 38.0264 208.5 37.8016V2.64962C208.492 2.42485 208.421 2.2346 208.28 2.08258Z" fill="#94A3B8"/>
</svg>
