<svg width="25" height="24" viewBox="0 0 25 24" fill="none" xmlns="http://www.w3.org/2000/svg">
<g clip-path="url(#clip0_745_19830)">
<path d="M12.5 24C19.1274 24 24.5 18.6274 24.5 12C24.5 5.37258 19.1274 0 12.5 0C5.87258 0 0.5 5.37258 0.5 12C0.5 18.6274 5.87258 24 12.5 24Z" fill="#F0F0F0"/>
<path d="M23.7536 16.174C24.236 14.874 24.5 13.4679 24.5 12.0001C24.5 10.5322 24.236 9.12616 23.7536 7.82617H1.24639C0.764047 9.12616 0.5 10.5322 0.5 12.0001C0.5 13.4679 0.764047 14.874 1.24639 16.174L12.5 17.2174L23.7536 16.174Z" fill="#0052B4"/>
<path d="M12.5002 23.9999C17.6598 23.9999 22.0583 20.7434 23.7538 16.1738H1.24658C2.9421 20.7434 7.34061 23.9999 12.5002 23.9999Z" fill="#D80027"/>
</g>
<defs>
<clipPath id="clip0_745_19830">
<rect width="24" height="24" fill="white" transform="translate(0.5)"/>
</clipPath>
</defs>
</svg>
